<?xml version="1.0" encoding="iso-8859-1"?>
<!-- Generator: Adobe Illustrator 30.3.0, SVG Export Plug-In . SVG Version: 9.03 Build 0)  -->
<svg version="1.1" id="Layer_1" xmlns="http://www.w3.org/2000/svg" xmlns:xlink="http://www.w3.org/1999/xlink" x="0px" y="0px"
	 viewBox="0 0 177 177" style="enable-background:new 0 0 177 177;" xml:space="preserve">
<radialGradient id="SVGID_1_" cx="81.897" cy="-26.6071" r="619.0404" gradientUnits="userSpaceOnUse">
	<stop  offset="0" style="stop-color:#FFFFFF"/>
	<stop  offset="0.3288" style="stop-color:#FCFCFC"/>
	<stop  offset="0.4654" style="stop-color:#F4F5F5"/>
	<stop  offset="0.5665" style="stop-color:#EAEBEB"/>
	<stop  offset="0.65" style="stop-color:#DBDCDE"/>
	<stop  offset="0.7227" style="stop-color:#C8CACC"/>
	<stop  offset="0.7879" style="stop-color:#B0B3B5"/>
	<stop  offset="0.8475" style="stop-color:#96989B"/>
	<stop  offset="0.9027" style="stop-color:#797A7D"/>
	<stop  offset="0.9522" style="stop-color:#565759"/>
	<stop  offset="0.9987" style="stop-color:#050506"/>
	<stop  offset="1" style="stop-color:#000000"/>
</radialGradient>
<rect x="-234.103" y="-238.607" style="display:none;fill-rule:evenodd;clip-rule:evenodd;fill:url(#SVGID_1_);" width="648" height="432"/>
<g>
	<path style="display:none;fill-rule:evenodd;clip-rule:evenodd;" d="M-48.743-215.698c-3.492,2.851-7.724,4.055-10.906,7.13
		c-3.54,3.424-5.994,7.957-8.39,12.584c10.302,13.35,21.934,32.211,22.232,54.109c0.067,4.864-0.199,10.622-0.841,15.937
		c-2.887,23.949-13.766,42.385-28.519,54.95c-1.39,1.181-3.263,2.136-5.035,2.516c0.12,2.076-1.174,2.737-1.679,4.195
		c1.173,7.237,10.953,11.183,18.456,8.387c3.267-1.216,4.411-4.182,6.711-5.871c-4.229,0.006-7.997-0.17-8.807-3.775
		c-2.246-10.005,12.399-10.371,13.842-1.676c2.065,12.449-13.978,19.31-26.427,15.937c-5.407-1.464-7.823-5.048-12.162-7.551
		c-21.85,9.759-52.787,13.19-77.599,4.195c-6.337-2.297-11.811-6.414-17.617-8.391c-6.521,5.681-19.881,11.743-29.361,5.875
		c-2.167-1.341-5.301-4.349-6.291-5.875c-4.031-6.199-2.492-18.272,8.389-15.097c4.707,3.645,2.727,11.599-3.776,11.742
		c1.535,5.584,6.894,9.097,13.842,7.131c3.896-1.103,8.766-7.111,8.808-9.227c0.066-3.287-6.096-6.779-8.808-9.646
		c-8.317-8.8-15.919-22.389-19.295-35.653c-5.668-22.271-1.324-45.311,5.453-61.24c2.32-5.454,6.084-9.887,8.389-15.52
		c2.248-3.799,7.737-6.496,7.971-10.906c0.273-5.192-6.093-8.454-7.551-13.423c-2.664-2.089-5.881-3.625-7.968-6.291
		c11.703-1.504,22.891,5.483,31.877,9.229c14.224-8.512,28.508-11.628,45.72-13.004c2.016-0.16,4.272-0.142,6.293,0
		c17.057,1.206,30.834,5.216,43.201,12.584c1.929,1.146,4.308,3.99,5.875,4.195c2.044,0.265,6.253-1.939,8.806-2.938
		c2.823-1.103,5.885-2.278,8.39-2.935C-59.253-215.666-54.02-218.361-48.743-215.698z M-161.574-215.278
		c-3.17,1.109-14.393,4.459-14.68,7.13c-0.159,1.472,4.151,5.46,5.454,6.711c8.03,7.714,16.012,15.08,19.712,24.328
		c6.015,6.571,8.438,16.729,13.003,24.748c2.907-17.921-2.157-37.124-10.486-47.818c6.414-2.955,12.854-9.878,10.486-18.874
		C-146.57-219.535-153.144-218.231-161.574-215.278z M-129.697-217.796c-1.512,9.106,3.919,14.787,10.067,17.617
		c-8.148,11.107-14.057,28.589-12.582,46.559c10.486-20.971,25.7-37.214,43.201-51.171
		C-98.484-212.199-117.251-218.678-129.697-217.796z M-192.194-203.534c6.359,6.911,13.736,15.441,20.972,20.133
		c2.319,1.504,5.822,1.496,6.711,4.615c-12.604-2.73-26.393-0.908-28.523,10.906c3.91-1.405,7.046-3.581,10.486-5.453
		c7.253-0.496,14.123-1.956,20.134-0.42c4.391,1.121,7.184,4.87,11.324,5.033c-2.251-7.06-8.255-12.74-13.842-18.037
		c-9.938-9.421-20.957-19.863-34.814-24.746C-198.51-207.803-194.895-206.47-192.194-203.534z M-87.752-196.404
		c-3.206,2.192-6.854,4.275-10.067,6.711c-6.27,4.753-16.589,12.692-17.617,20.135c-0.413-1.797,0.812-0.306,1.26-0.42
		c9.862-2.536,21.491-3.072,30.199,1.678c2.905,1.585,4.581,4.497,7.971,3.356c-2.857-10.538-16.176-15.031-28.523-12.164
		c4.652-4.765,11.347-5.844,16.358-9.648c5.294-4.016,8.53-10.221,14.682-13.001c0.137-3.639,3.867-3.685,4.615-6.711
		C-77.637-205.495-81.853-200.434-87.752-196.404z M-196.389-195.146c-2.934,2.282-4.996,6.385-7.969,10.907
		c-6.49,9.87-12.704,23.943-13.842,37.331c-1.674,19.697,2.982,36.482,9.646,50.333c5.834,6.889,9.162,16.286,17.617,20.553
		c5.591-17.232-13.157-24.458-13.422-41.945c-0.319-21.152,25.82-31.477,45.3-22.65c9.458,4.286,14.022,13.417,20.134,20.134
		c-1.025-20.366-0.252-46.5-22.231-45.719c-1.497,2.809-3.801,4.568-3.355,7.967c0.44,3.358,3.765,3.668,5.033,6.292
		c-11.727,2.309-18.325-17.751-31.458-11.744c-3.513,1.606-5.011,6.491-8.388,7.551c-2.231-13.112,4.473-22.738,12.164-28.523
		C-190.069-188.32-191.691-193.271-196.389-195.146z M-77.265-76.022c7.605-11.658,20.894-25.349,23.488-43.622
		c0.656-4.598,2.069-9.963,2.099-15.101c0.12-21.95-8.069-41.581-19.296-54.529c-0.28,0-0.559,0-0.836,0
		c-2.608,2.308-5.652,5.669-5.454,8.808c0.123,1.958,2.656,3.841,3.775,5.872c1.686,3.063,2.789,6.784,3.355,10.486
		c0.529,3.464,2.417,8.514-0.84,11.325c-2.086-1.408-2.515-4.473-4.191-6.291c-16.009-9.339-22.273,13.814-36.494,8.389
		c2.291-2.174,5.055-2.539,5.451-5.873c0.546-4.551-3.659-7.991-7.13-7.968c-16.395,0.099-22.161,31.18-20.553,44.462
		c5.301-8.746,13.832-18.885,26.008-20.974c14.398-2.47,27.916,4.076,33.555,11.324c3.901,5.014,6.421,12.244,4.614,20.973
		c-2.84,13.722-16.101,20.276-15.101,37.332C-81.669-72.319-80.321-75.022-77.265-76.022z M-193.033-132.648
		c-1.901,3.14-5.532,4.396-7.129,8.809c-2.511,6.93,0.599,17.488,6.291,19.713c2.71,1.058,9.816,1.126,10.067-3.355
		c-6.793-0.918-6.709-10.855,0.419-11.326c0.886,1.492,3.496,1.26,4.613,2.519c5.835,9.06-3.079,17.006-13.421,16.358
		c5.033,8.249,11.152,15.412,10.066,29.778c6.021,5.025,12.633,9.459,23.07,10.066c1.205-2.737,4.494-1.362,7.55-2.096
		c3.516-0.843,5.154-3.765,5.871-7.551c-7.474-3.895-17.579-6.24-21.391-14.681c-5.49-12.152,2.736-24.489,11.324-29.78
		c0.951,8.518,6.54,15.078,15.1,13.422c3.137-14.817-4.453-29.219-17.615-27.263c-4.98,0.74-6.646,4.717-10.486,7.55
		C-170.57-130.665-181.438-136.079-193.033-132.648z M-97.819-103.285c-0.669-1.707-1.023-5.182-0.42-6.711
		c1.789-4.526,11.377-7.285,13.002-1.26c1.993,7.387-5.776,4.182-6.291,7.551c-0.713,4.676,10.219,2.212,12.585,0.839
		c4.547-2.645,6.233-9.083,5.872-13.841c-1.021-13.47-17.378-17.296-25.587-9.23c-2.147,2.113-1.857,4.161-5.031,6.294
		c-11.438-17.058-36.154,0.161-28.943,19.293c8.8,0.123,12.899-5.82,15.938-12.582c12.575,7.216,16.166,28.404,2.938,36.91
		c-1.549,0.996-4.297,2.273-7.131,3.354c-3.034,1.158-8.273,1.106-8.81,3.776c-0.355,1.771,3.25,5.779,4.195,6.291
		c2.028,1.099,5.588,0.355,7.131,1.26c1.478,0.863,0.962,3.113,2.935,3.356c3.812-0.905,8.131-1.168,11.746-2.516
		c2.833-1.058,8.943-4.031,10.066-6.294c0.772-1.554,0.171-3.431,0.42-5.032c1.69-10.882,10.353-16.221,13.002-26.007
		C-87.666-95.616-95.733-97.968-97.819-103.285z M-156.54-84.412c0.876-4.871,0.109-8.817,0.418-14.258
		C-164.225-107.546-167.951-83.016-156.54-84.412z M-111.24-95.735c-0.294-1.065-1.925-4.653-3.776-4.615
		c-4.911,0.096-2.686,10.609-2.515,15.521C-112.834-85.102-110.155-91.803-111.24-95.735z M-153.605-96.155
		c-1.535,2.997-0.873,9.756-0.419,13.422c1.393,0.983,2.725,2.028,5.453,1.676c1.801-3.611,1.135-8.237,0.42-13.001
		C-149.616-95.11-150.964-96.277-153.605-96.155z M-126.342-80.637c1.95,0.593,4.66-0.665,6.291-1.676
		c0.321-3.567,1.247-10.152-0.419-13.002C-128.192-95.581-128.457-86.901-126.342-80.637z M-144.796-92.8
		c-1.101,3.841-0.903,8.708,0,12.582c1.508,0.73,3.504,0.973,5.873,0.839c1.137-3.308,0.495-8.199,0-12.166
		C-140.123-92.718-142.258-92.96-144.796-92.8z M-135.988-90.703c0.181,4.536-0.75,7.929,0.84,11.325
		c1.597,0.543,4.171,0.15,5.872-1.259c0.147-2.864,0.444-8.589-0.84-11.323C-132.427-91.703-134.216-92.14-135.988-90.703z"/>
</g>
<g>
	<path style="display:none;fill-rule:evenodd;clip-rule:evenodd;" d="M254.282,11.195c2.23-4.583,3.813-11.931,9.229-13.843
		c10.41-3.678,15.107,7.498,9.228,13.004c-2.511,0.602-4.553-0.05-6.295-1.258c-1.078-2.816,0.199-5.245,1.681-6.712
		c-8.043-3.151-10.206,8.692-10.487,14.681c0.827,1.413,3.42,1.057,4.615,2.099c0.116,1.419,0.662,2.408,0.418,4.192
		c-1.408,1.335-1.947,1.054-4.615,1.26c-1.53,9.757-1.331,21.408-0.418,31.038c3.647-5.566,3.701-15.425,8.807-20.552
		c5.121-11.517,12.856-20.421,22.652-27.266c2.69-2.429,5.68-6.51,10.062-5.871c0.93,3.716-2.737,3.857-4.191,6.71
		c-3.809,7.495,0.369,19.644-6.295,26.006c1.278,4.008,5.845,4.391,7.976,7.552c3.221,4.784,2.859,10.739,3.352,18.454
		c-2.246-0.684-2.546-3.325-4.192-4.613c-17.332-11.27-42.727,0.891-38.594,24.747c4.432-7.176,10.74-12.476,19.718-15.101
		c4.807,1.656,7.79,0.8,11.741,2.938c10.043,5.419,11.716,16.855,11.75,27.684c0.033,10.503-2.164,19.456-5.871,26.844
		c-5.455,10.857-13.128,19.156-14.261,29.781c-0.759,7.087,2.02,10.955,5.87,13.422c5.626,0.704,10.234-1.747,9.229-6.291
		c-1.623-0.857-2.854,0.15-5.036-0.419c-4.268-3.281-1.518-10.63,5.453-8.81c8.786,6.772,3.455,21.682-8.808,20.132
		c-6.682-0.843-10.301-7.148-10.909-14.678c-1.699-21.266,16.774-30.964,18.877-49.075c-5.406,5.283-10.39,12.878-19.292,13.422
		c-6.356,0.388-11.115-3.708-11.744-9.647c-1.296-12.175,6.958-20.877,15.52-24.749c-0.26,4.637-3.987,5.805-3.775,10.907
		c2.587,12.592,19.927,6.698,20.132-6.71c0.158-10.353-10.316-22.075-23.907-17.199c-15.081,5.408-15.914,26.193-14.686,45.718
		c0.567,8.957,2.842,13.678,10.487,17.197c-1.379,2.55-4.048,2.399-5.872,4.195c-3.022,2.99-3.876,8.862-3.773,13.843
		c0.089,4.119,1.528,7.734,5.455,9.649c1.863-0.113,3.522-2.138,5.454-0.84c-3.135,12.603-22.878,13.025-25.588-0.419
		c3.365,0.105,7.284,0.163,8.807-2.937c2.356-4.792,1.16-15.982-3.774-19.297c-2.062-1.386-4.076-0.252-5.451-2.517
		c1.355-3.256,6.215-5.307,7.549-9.226c2.407-7.075,1.212-17.402,0.837-25.167c-0.703-14.751-4.914-28.053-18.033-30.201
		c-13.65-2.236-22.611,15.199-14.681,28.101c2.023,1.893,4.928,3.438,7.967,2.94c7.564-1.249,6.261-12.251,4.198-17.619
		c9.183,1.027,19.675,26.508,8.808,33.556c-7.981,5.179-14.952-3.184-20.554-6.71c-0.266,4.829,3.574,8.372,5.871,12.161
		c4.069,6.716,7.896,12.906,10.907,21.394c0.375,4.119,0.733,11.822-0.421,16.78c-2.297,0.741-2.765,4.205-5.034,5.871
		c-5.93,4.355-17.088,0.799-18.453-5.035c0.316-6.486,0.143-13.661,6.291-13.841c3.15-0.094,5.819,2.419,5.874,7.13
		c-0.518,0.185-0.863,0.536-0.839,1.26c-1.769,1.048-4.527,1.048-6.295,0c-2.929,11.592,13.743,9.625,15.521,0.42
		c0.668-3.465-0.469-10.588-1.26-13.006c-3.546-10.82-15.222-21.668-19.293-35.229c-2.458-8.19-2.097-26.09,1.679-33.14
		c4.844-9.053,18.849-15.255,29.779-6.29c3.482,2.854,2.86,5.613,7.967,9.646c5.429-18.243-14.739-36.931-31.874-28.522
		c-3.804,1.868-4.414,5.614-8.808,7.551c-1.29-13.648,3.997-21.234,12.998-25.585c0.718-2.764-2.396-4.395-2.935-6.712
		c-1.693-7.257-1.679-13.921-5.032-20.134c-1.276-2.358-3.833-3.756-4.194-6.291c1.662-0.173,6.079,1.748,7.971,2.936
		c3.679,2.311,6.873,6.579,10.485,10.066c9.93,9.592,19.398,22.634,22.228,37.751c2.949-2.752,1.018-7.38,0.839-11.325
		c-0.23-5.223,0.739-10.922-0.839-15.521c-1.996-2.355-5.468-1.501-5.45-4.612c0.013-2.983,3.561-2.247,5.034-5.033
		c-0.267-7.507-4.349-18.447-11.325-13.843c0.678,3.224,2.559,1.642,2.516,4.614c-0.1,6.978-12.838,2.815-9.227-5.873
		c2.086-5.019,12.199-5.563,16.776-1.678C252.628,2.576,253.338,8.137,254.282,11.195z M279.867,23.358
		c-2.191,2.611-3.809,6.346-5.872,9.647c-3.829,6.148-9.141,11.155-9.646,18.875c7.162-5.166,19.887-10.069,29.362-2.935
		c-1.064-8.027-12.747-10.336-20.132-7.131c5.714-7.287,12.057-13.949,14.261-24.748c-0.09-0.471-0.471-0.653-0.841-0.838
		C285.295,19.255,282.023,20.788,279.867,23.358z M238.761,41.395c-7.93-3.062-17.057,0.708-18.453,7.13
		c7.579-7.606,21.171-0.662,26.843,2.936c1.441-2.69-2.017-3.757-1.26-7.13c-5.825-9.829-11.382-19.934-20.551-26.424
		C226.044,27.839,234.31,33.819,238.761,41.395z"/>
</g>
<g>
	<path style="display:none;fill-rule:evenodd;clip-rule:evenodd;" d="M377.866,27.023c-16.62-3.126-6.639,24.798-15.522,30.62
		c-0.184-2.067-0.03-6.932-2.936-7.549c-2.724,0.913-2.648,4.619-5.031,5.871c0.844,10.261-7.346,18.569-12.586,26.425
		c3.711,0.969,8.442-1.371,11.746-2.937c20.898-9.901,41.648-34.616,37.75-63.755c-0.58-4.34-3.249-10.456-8.81-9.647
		c-3.331,0.485-3.112,4.546-6.29,5.453c-3.186-9.64,10.991-13.544,18.036-10.066c11.845,5.85,11.241,27.729,5.451,40.268
		c-1.611,3.488-4.387,5.983-4.192,7.968c0.396,4.11,12.679,10.401,7.549,17.617c-9.937-12.477-21.554,0.495-30.619,6.292
		c-5.857,3.746-12.316,5.693-16.359,9.227c1.845,2.559,4.767,0.949,7.132,0.84c11.31-0.527,20.031,0.218,29.359-3.357
		c5.694-2.181,9.545-1.916,14.261,2.098c0.148,3.082-0.047,5.825-0.836,7.971c-3.304,2.271-8.967,5.782-12.165,1.257
		c-6.234-1.298-14.17-2.969-22.648-3.355c-5.69-0.259-12.63-1.129-16.359,1.679c4.733,2.94,11.223,4.884,17.195,9.647
		c6.552,5.219,15.419,16.592,25.588,11.324c2.232-1.156,2.301-2.918,4.615-4.614c4.495,6.052-2.171,13.917-5.875,17.197
		c8.917,11.179,12.733,36.767-0.419,46.56c-5.967,4.445-21.354,4.679-20.553-6.712c3.605,0.684,6.075,7.077,11.745,3.355
		c3.015-1.979,4.64-6.989,5.034-11.746c1.503-18.151-9.144-38.615-18.876-47.396c-8.278-7.465-17.988-15.534-30.199-17.616
		c4.712,7.752,12.051,15.05,10.903,27.264c1.631,2.146,3.617,3.935,5.454,5.871c1.649-1.147,2.54-3.053,2.096-6.292
		c8.496,2.837,3.633,16.348,6.712,23.908c2.081,5.109,5.43,5.329,9.229,8.391c-1.777,4.772-8.871,2.87-13.005,5.035
		c-2.52,1.317-2.376,3.544-4.611,5.031c-0.024,1.25,1.23,2.13,0.42,2.934c-2.711,2.883-2.689,12.747-6.712,13.006
		c-3.341,0.212-4.451-6.692-5.871-9.649c-1.911-3.966-4.117-6.633-5.875-9.227c-7.288-1.611-13.793-1.494-18.035-5.871
		c4.242-3.011,8.978-2.451,11.745-6.294c5.865-8.142,0.123-22.816,7.55-27.684c0.623,2.734,0.908,5.806,3.352,6.711
		c1.264-1.391,3.807-3.39,4.2-5.871c1.04-6.627-7.701-23.279-13.846-26.005c-1.27-0.566-0.482-1.135-1.256-1.259
		c-5.636-0.885-8.049,1.498-9.647,5.451c-2.341-1.992-4.259-4.409-7.55-5.451c-0.245-1.993-0.608-3.866-0.42-6.291
		c2.182-2.012,5.179-3.211,6.291-6.293c2.418,1.635,3.218,4.461,5.871,5.033c10.685,2.308,14.917-13.372,19.297-18.875
		c1.156-5.161,0.037-9.648-2.517-13.842c-3.591-0.375-3.095,3.339-5.035,4.614c-5.731-0.372-3.546-6.667-4.194-10.486
		c-1.421-8.353-8.172-12.227-14.263-15.939c2.991-3.262,7.334-5.849,11.746-7.129c2.189-0.635,4.388,0.039,6.292-1.259
		c1.652-1.127,1.758-3.547,2.935-6.292c2.104-4.89,5.535-11.083,7.132-14.682c6.562,2.353,8.38,16.43,12.584,20.554
		C368.137,23.09,375.6,20.711,377.866,27.023z M350.179,37.09c-3.893-5.057-8.554-9.339-17.613-9.229
		c6.055,5.967,13.729,10.319,16.777,19.295c1.32,0.275,4.489,0.08,6.291-0.418c0.784-3.881,3.341-7.611,5.031-11.746
		c2.806-3.093,8.148-5.803,8.809-9.648c-7.799,0.31-10.268,5.952-14.68,9.648c0.653-7.82,0.398-19.266-2.097-26.425
		c-0.42,0-0.84,0-1.259,0C349.196,16.653,351.047,27.715,350.179,37.09z M348.923,126.85c-2.579,6.23-4.901,12.72-8.39,18.038
		c-2.198,1.297-4.137,2.849-5.031,5.454c8.513-0.168,12.377-8.585,15.517-15.521c0.554,5.288-1.078,12.423-0.839,19.297
		c0.171,4.826,0.355,11.121,3.358,13.841c3.769-8.539,2.536-22.753,2.097-32.297c1.932,7.018,5.407,12.484,13.422,13.421
		c-0.571-3.611-4.621-5.554-6.712-9.227c-2.109-3.714-2.256-8.391-4.191-12.584C354.686,126.734,351.4,126.369,348.923,126.85z"/>
</g>
<path style="display:none;fill-rule:evenodd;clip-rule:evenodd;" d="M172.356-216.259c-3.799,9.902-10.482,16.921-14.262,26.845
	c3.543,6.801,7.803,12.887,11.327,19.714c7.639,18.458,9.539,45.511,1.674,66.271c-1.579,4.174-4.088,9.947-7.13,14.682
	c-2.577,4.014-8.688,9.701-8.808,13.001c-0.136,3.68,4.831,9.121,7.132,13.425c1.055,1.973,1.412,3.902,2.097,5.032
	c1.279,2.12,4.279,3.778,3.775,6.291c-4.176-1.441-8.102-4.202-12.583-6.711c-3.372-1.885-9.578-6.015-13.006-5.871
	c-2.427,0.102-3.058,2.25-5.45,3.775c-8.233,5.25-23.44,10.579-34.396,12.163c-22.067,3.192-42.152-1.293-59.981-10.903
	c-3.758-2.027-9.915-8.158-13.842-8.391c-4.56-0.273-10.29,4.625-14.261,6.711c-5.255,2.758-9.655,4.97-14.261,6.29
	c4.221-10.318,11.363-17.719,15.519-28.103c-1.501-2.973-3.26-5.687-5.454-7.967c-3.437-9.073-9.168-19.681-10.486-31.458
	c-2.655-23.757,4.07-47.386,12.167-62.919c1.821-3.471,6.983-5.728,7.131-9.646c0.091-2.527-5.223-10.227-6.713-13.004
	c-2.597-4.836-5.718-9.102-6.292-13.422c3.832,1.691,8.092,3.844,13.004,6.711c3.319,1.939,8.916,7.093,12.581,7.13
	c2.539,0.026,4.516-2.924,6.71-4.195c25.275-14.63,57.008-17.158,83.47-6.291c3.376,1.386,8.117,3.914,12.165,6.291
	c3.062,1.799,8.77,6.956,11.326,7.131c2.662,0.182,4.246-1.953,6.29-2.936c3.501-1.683,6.978-2.935,10.487-5.033
	C165.771-213.728,169.315-216.144,172.356-216.259z M77.141-216.678c-9.246,1.181-18.459,3.966-25.586,7.549
	c-3.214,1.617-10.046,4.738-10.067,7.551c-0.029,4.145,7.626,6.692,9.648,10.066c5.352-6.81,15.896-14.673,24.747-13.842
	c-2.439,5.001-5.673,7.283-6.292,13.422c-1.599,15.882,13.812,20.421,13.423,32.718c-2.936-2.163-6.915-6.583-12.165-3.775
	c1.656,3.309,2.497,4.837,2.098,10.066c3.935,6.171,9.065,10.745,19.294,9.648c2.912-2.402,5.578-5.047,8.808-7.131
	c0.232-4.522,2.287-7.222,3.355-10.905c-3.543-2.966-7.362,0.892-10.066,2.517c-0.289-11.749,14.043-16.552,14.263-29.362
	c0.107-6.414-3.221-11.399-5.033-15.94c9.31,0.921,15.951,8.078,21.39,14.262c4.305-3.107,9.984-4.837,12.166-10.066
	C125.455-209.938,103.274-220.018,77.141-216.678z M119.086-169.28c4.629-9.8-0.219-19.709-7.132-23.91
	c3.971,10.353,0.5,21.239-1.675,31.039c2.636,7.199,8.4,2.787,15.098,2.098c8.332-0.857,15.657,1.128,22.231,2.098
	c-3.505-7.818-15.23-10.073-25.168-6.712c14.48-11.947,28.885-23.964,39.01-40.267C145.008-195.651,131.794-180.901,119.086-169.28z
	 M22.194-202.418c8.002,12.693,18.347,23.038,28.942,33.138c-9.75-0.964-20.213,0.363-23.49,8.807
	c5.44-1.334,14.8-3.759,21.391-2.936c2.943,2.652,8.438,2.749,11.746,5.034c5.865-3.813,0.622-10.089,0.839-17.198
	c0.27-8.801,4.068-15.263,4.615-22.229c-9.463,2.869-10.007,15.353-10.907,25.585c-9.883-11.9-20.44-24.019-33.136-31.878
	C21.707-203.474,21.707-203.038,22.194-202.418z M22.615-164.247c1.69-2.23,10.276-7.721,10.486-10.067
	c0.219-2.479-8.007-10.028-9.648-11.325c-20.905,19.706-23.767,73.205-3.356,95.635c2.849-3.724,6.802-6.341,8.809-10.906
	c-6.203-5.123-11.379-13.51-11.326-23.491c4.381,0.996,8.27,4.123,13.842,4.615c12.647,1.12,21.854-8.984,31.879-10.486
	c-0.999,2.915-3.219,4.611-3.355,8.39c2.802-0.952,5.973,0.308,8.808-0.419c4.6-1.181,7.199-6.963,10.487-9.646
	c-0.964-2.832-0.289-4.726-0.42-8.39c-4.393-5.673-9.124-11.01-17.615-12.584c-4.661,3.546-0.371,10.304,1.257,13.842
	c-6.374-0.423-10.132-6.538-14.681-10.066c-4.73-3.669-10.563-6.953-16.778-6.291c-5.557,0.59-9.112,4.486-13.423,5.033
	C18.997-155.447,19.05-159.552,22.615-164.247z M146.768-170.96c-0.064,1.39,1.99,5.191,2.936,6.713
	c3.199,5.125,8.794,10.148,7.131,17.197c-6.246-3.33-14.8-6.943-23.908-3.775c-6.639,4.565-14.666,12.148-24.326,10.905
	c3.802-2.054,9.774-6.302,5.87-12.163c-2.239,3.14-5.837,1.943-9.226,2.935c-4.837,1.415-7.221,6.965-10.487,9.646
	c0.119,3.196,0.018,6.17-0.84,8.389c4.421,5.94,9.612,12.568,18.036,12.165c1.94-4.929-2.119-7.345-3.354-10.486
	c12.802,0.573,19.217,13.582,31.878,14.262c6.819,0.365,11.247-3.342,16.776-5.875c-0.424,5.547-2.334,10.542-6.71,15.522
	c-2.52,2.867-9.524,5.291-9.647,8.807c-0.086,2.485,3.534,5.076,5.032,7.13c1.99,2.724,2.652,5.697,5.873,6.295
	c8.62-9.24,16.061-23.693,18.038-39.849c2.706-22.143-3.725-44.766-15.521-58.304c-0.023-0.254-0.061-0.495-0.42-0.418
	C152.548-177.867,146.961-174.922,146.768-170.96z M90.143-127.757c-12.36-3.411-17.229,9.554-20.971,18.456
	c5.289,3.287,9.884-2.745,12.584-3.355c-0.837,10.534-10.823,16.016-13.424,25.587c-2.813,10.367,2.701,14.671,5.034,21.808
	c-12.021-1.12-17.834-8.448-24.747-14.678c-3.642,2.929-8.231,4.912-10.905,8.807C47.94-59.965,64.991-55.627,84.272-53.514
	c10.551-0.789,22.415-1.096,34.393-5.451c2.718-0.99,14.021-5.95,13.843-9.23c-0.116-2.178-9.07-8.073-10.486-7.967
	c-1.526,0.109-2.409,1.919-3.775,2.936c-3.768,2.806-10.643,6.683-15.518,7.966c-1.627,0.431-4.379,1.342-5.454-0.416
	c3.35-5.359,7.213-9.087,6.712-16.361c-0.84-12.234-12.757-18.32-13.423-30.199c2.957,1.891,5.845,5.775,10.486,4.615
	C100.373-115.813,97.471-125.732,90.143-127.757z M26.387-115.171c3.139,8.141,12.045,12.258,23.071,10.066
	c-11.574,12.053-25.276,21.98-33.556,37.33c5.088-1.762,7.852-5.372,11.325-8.387c3.534-3.065,8.059-5.854,11.745-9.23
	c5.594-5.12,10.984-10.346,15.101-15.937c-1.873,10.391-0.087,24.659,8.806,28.103c0.758-2.54-1.496-4.397-2.096-7.131
	c-2.176-9.926-1.165-22.211,2.517-30.203c-1.728-0.789-2.386-2.645-4.194-3.355C49.073-108.055,34.866-111.123,26.387-115.171z
	 M124.121-108.88c-4.896-0.734-9.05-3.464-12.167-2.516c-5.365,1.629-2.614,6.759-1.675,10.486
	c2.727,10.831-1.652,19.982-2.519,28.103c9.209-2.837,11.848-14.487,9.229-25.588c11.392,12.377,21.963,25.574,37.329,33.975
	c-5.608-9.056-11.793-17.566-18.875-25.168c-4.644-4.984-10.609-8.697-14.679-14.258c10.365,2.509,20.716,0.823,26.003-5.874
	C140.389-110.041,131.623-107.754,124.121-108.88z"/>
<g>
	<path style="display:none;fill-rule:evenodd;clip-rule:evenodd;" d="M-55.733,158.911c-1.824-0.816-4.458,2.283-6.711,0
		c-2.614-4.882,0.898-9.146,5.871-8.386c4.639,0.702,7.199,8.365,5.875,13.001c-1.218,4.246-6.834,8.343-12.585,7.971
		c-8.397-0.547-11.588-9.104-11.746-19.713c-5.693,2.751-8.93,7.789-14.678,11.322c-26.601,16.35-72.337,15.746-98.571-2.517
		c-3.079-2.143-4.859-5.624-8.808-6.709c0.771,10.201-0.447,19.619-11.326,20.132c-3.963,0.188-9.826-2.642-11.325-5.452
		c-3.027-5.674-1.812-15.776,4.194-16.361c7.903-0.767,9.424,11.446-0.418,10.071c-0.906,10.138,14,7.795,15.1-0.84
		c0.981-7.712-6.348-14.108-9.649-20.554c-1.809-3.535-1.512-6.542-4.193-8.39c-5.335-13.268-10.884-27.276-11.744-44.041
		c-0.643-12.521,2.261-27.311,6.71-37.751c1.331-3.123,3.88-4.785,3.776-7.969c-0.111-3.355-4.042-6.029-5.873-10.487
		c-4.396-10.699-2.217-30.526,13.421-29.361c2.745,0.205,7.831,2.358,8.388,5.453c0.789,4.364-3.603,8.341-7.548,6.712
		c-3.016-1.245-1.649-3.875-3.356-6.712c-12.524,1.087-8.487,22.728-0.419,25.586c4.571-3.119,7.593-7.786,10.906-12.164
		c18.53-17.915,51.798-30.055,85.147-21.391C-98.44,4.74-86.741,11.945-75.446,22.592c2.075,1.957,8.018,9.166,10.486,9.229
		c4.222,0.105,7.681-8.207,7.967-12.585c0.191-2.876-1.044-9.184-3.775-9.227c-3.57-0.057-2.082,5.439-7.967,4.614
		c-7.373-1.034-5.42-11.159,0.836-12.583c11.401-2.593,16.996,11.924,16.361,22.229c-0.185,3.011-1.611,7.37-2.936,10.067
		c-1.259,2.565-4.018,4.835-4.195,7.131c-0.188,2.424,2.174,5.098,2.936,7.13c4.372,11.704,7.841,24.917,7.13,41.106
		c-0.731,16.619-5.482,30.327-11.746,42.783c-3.229,6.428-13.712,16.24-10.066,27.684c1.031,3.235,4.076,6.175,6.711,6.711
		C-58.952,167.848-54.119,165.575-55.733,158.911z M-180.728,15.462c-8.768,7.172-18.844,13.034-23.49,24.328
		c2.63,2.963,7.805,3.382,10.487,6.291c5.103,0.895,8.953,3.632,12.583,5.872c3.835,2.37,7.946,3.918,11.744,6.712
		c9.438,6.942,19.658,19.766,23.069,31.039c1.359,4.495,0.821,12.643,6.711,10.906c1.626-6.511,2.078-22.888,0-31.459
		c-0.642-2.646-2.401-8.436-4.195-8.809c-4.233-0.88-3.943,5.495-5.451,8.39c-4.827-6.008-4.923-15.545-10.906-20.972
		c-2.29-2.079-5.182-3.003-8.808-4.615c-1.949-0.203-4.014,1.261-5.033-0.419c3.356-8.669,13.438-10.612,23.488-12.583
		c4.962-6.784,8.385-15.105,9.649-25.588C-156.696,3.986-168.52,11.029-180.728,15.462z M-126.201,85.09
		c8.319-18.076,25.663-29.966,42.365-39.847c3.065-1.815,11.933-5.825,12.165-8.39c0.232-2.606-6.366-8.316-8.391-10.065
		C-93.24,15.4-113.821,4.389-135.848,4.556c0.668,9.547,7.547,16.494,10.906,24.748c11.029,2.112,20.774,5.51,26.004,13.423
		c-3.222,0.267-5.785-0.379-7.966,0c-13.671,2.362-10.787,20.942-19.297,26.844c0.201-4.114,0.018-7.847-3.775-7.969
		c-0.765,2.145-3.133,5.316-3.775,8.81c-0.879,4.806,0.433,13.604,0.42,20.132c-0.007,4.339-1.575,8.172,1.679,9.645
		C-129.11,95.21-128.437,89.952-126.201,85.09z M-138.783,14.623c-2.215,6.784-3.306,18.485-2.097,27.265
		c0.375,2.729,2.918,5.377,0.837,7.551c-2.17-8.534-13.832-16.862-23.487-10.068c10.146,3.416,18.387,8.736,22.65,18.036
		c2.345,0.222,3.686,0.234,6.709,0.42c4.642-9.341,13.837-14.129,23.071-18.874c-10.241-4.977-20.692,2.612-24.328,9.646
		c1.32-11.577,2.567-25.614-2.099-33.975C-137.945,14.623-138.365,14.623-138.783,14.623z M-75.866,142.554
		c9.356-15.224,20.522-33.185,20.973-57.464c0.239-12.895-3.635-23.306-7.131-33.974c-1.98-0.397-2.12-2.636-3.775-3.355
		c-4.557,2.292-6.008,7.695-8.81,11.743c-2.339-2.224-2.12-5.358-5.452-5.873c-8.151-1.259-9.042,11.629-1.679,11.745
		c3.43,0.054,2.529-1.974,6.71-2.517c1.137,5.041,5.749,8.764,7.551,11.744c-11.196,2.499-16.712-4.256-24.747-5.452
		c-18.034-2.685-34.033,14.401-32.715,31.037c4.875,1.222,4.895-3.576,6.291-5.87c2.464-4.055,7.342-6.938,13.003-7.551
		c3.382-6.043,12.438-10.3,20.552-6.711c3.083,3.769,6.486,7.219,6.711,13.842c12.511,7.134,10.688,26.542-2.096,28.943
		c-1.597,0.3-3.383-0.856-5.035,0c-2.058,1.07-1.847,3.643-3.771,6.291c-2.936,4.033-10.568,8.059-16.78,8.807
		c-3.642,0.439-8.548,1.331-11.323-0.837c0.014-2.642,3.478-1.837,4.611-3.355c1.509-2.966,4.062-4.887,3.355-10.066
		c-2.676-5.188-9.301-9.048-15.518-6.294c-6.649,2.946-8.4,15.02-6.711,23.912c13.644,4.321-4.215,14.372,0.836,24.743
		C-105.187,167.195-89.557,154.735-75.866,142.554z M-210.091,49.017c-13.67,15.572-10.489,59.047-1.677,76.341
		c4.571,8.97,10.798,15.671,18.875,22.65c12.797,11.057,32.171,19.655,53.271,18.453c-0.207-4.505,0.334-9.083-2.517-13.001
		c-2.086-2.868-5.333-3.061-5.034-6.291c0.32-3.472,4.97-3.755,6.711-6.711c1.504-11.158-2.286-22.563-11.325-23.491
		c-10.828-1.106-16.311,10.274-8.809,18.036c1.603,1.195,4.692,0.902,5.453,2.937c-5.742,1.27-13.443,2.594-16.778-1.678
		c-6.651,1.117-11.214-6.9-15.1-11.324c-15.826,1.416-22.558-19.321-10.486-27.684c-1.394-16.109,20.285-22.26,27.265-10.066
		c6.145,0.798,8.952-0.074,12.583,3.355c3.131,2.957,3.305,11.988,9.228,9.226c-0.138-11.544-7.353-22.935-16.359-27.262
		c-3.364-1.617-9.703-3.497-14.68-2.937c-4.027,0.454-8.476,3.342-13.004,4.613c-5.667,1.592-11.1,2.076-17.196,1.261
		c0.948-2.051,3.105-1.708,4.613-2.938c2.965-2.414,3.782-6.284,5.033-10.486c2.717,2.988,4.48,5.37,8.391,4.615
		c6.577-1.273,5.291-11.895-0.84-12.585c-4.526-0.509-4.663,2.355-7.969,3.775C-202.865,54.096-204.15,49.228-210.091,49.017z
		 M-83.836,93.48c0.792-12.255-18.703-11.56-16.778,2.098c-12.735-8.769-20.149,15.354-4.195,14.263
		c-11.814,12.094,15.378,23.743,13.841,3.771c3.216,2.116,5.26,3.387,8.391,2.938c7.724-1.106,9.24-14.507,1.676-15.939
		c-2.799-0.529-3.939,1.684-5.871,0C-86.434,96.612-84.062,96.951-83.836,93.48z M-180.31,85.51
		c-7.738-0.996-13.378,4.128-11.744,10.903c0.62,2.572,3.883,2.886,4.195,5.876c-14.199-2.782-13.5,18.374-1.68,16.356
		c2.98-0.508,3.249-3.396,6.713-4.194c1.703,1.32-0.377,3.03,0,5.454c3.338,8.435,17.366,5.568,16.357-3.775
		c-0.254-2.369-2.453-2.598-2.516-5.874c2.187-0.468,4.569-0.744,6.711-1.257c5.503-5.208,3.081-15.565-4.195-16.36
		c-4.414-0.481-5.635,2.509-8.808,4.615C-175.811,93.28-175.801,86.727-180.31,85.51z M-153.045,108.581
		c0.546,1.969,1.579,3.453,4.613,2.934C-144.308,107.184-151.21,103.333-153.045,108.581z M-124.942,111.515
		c2.062-0.733,4.345-1.245,5.032-3.355C-120.995,103.155-128.02,106.553-124.942,111.515z M-135.848,121.161
		c2.636-3.238,2.516-11.427,0.42-15.097C-141.345,106.361-139.949,119.99-135.848,121.161z M-131.233,114.451
		c1.642-0.311,2.277-1.636,3.771-2.097c0.055-2.43,0.137-4.888-0.836-6.29C-133.858,104.014-132.349,112.505-131.233,114.451z
		 M-141.301,115.29c0.68-1.932,0.68-6.454,0-8.391C-147.656,104.278-146.122,115.997-141.301,115.29z"/>
	<path style="display:none;fill-rule:evenodd;clip-rule:evenodd;" d="M-91.807,106.481c-2.324,3.287-7.994,2.789-8.807-0.836
		C-102.085,99.084-89.957,96.237-91.807,106.481z"/>
	<path style="display:none;fill-rule:evenodd;clip-rule:evenodd;" d="M-174.017,103.544c1.751,9.118-9.472,8.162-9.228,2.101
		C-183.073,101.367-176.951,99.827-174.017,103.544z"/>
</g>
<path style="fill-rule:evenodd;clip-rule:evenodd;" d="M92.475,0.195c-0.741,3.562-0.48,19.55,5.023,19.977
	c2.856,0.22,7.74-7.564,10.46-9.156c6.532-3.822,21.253-6.909,24.689,2.496c1.413,3.873-0.94,9.397-4.604,9.989
	c-8.341,1.342-9.578-4.998-5.857-10.403c-5.215-2.788-12.28,1.732-16.322,4.993c-6.988,5.636-13.505,17.29-14.226,30.377
	c-0.643,11.756-0.834,25.943,6.279,31.625c1.497,1.2,3.752,0.895,4.181,2.912c-14.556,3.372-12.86,24.627-11.714,41.198
	c3.234-1.116,4.703-7.506,7.952-9.988c3.259-7.436,7.648-13.752,13.391-18.723c1.997-5.229,6.26-8.197,8.366-13.317
	c-0.259-4.145,0.858-6.915,2.095-9.573c-4.084-3.597-7.789,1.998-10.043,4.161c-2.137-10.793,10.588-16.459,8.786-29.545
	c-0.865-6.288-5.315-9.606-7.952-14.98c10.788-0.325,18.395,2.512,25.526,5.825c9.936-7.433,21.537-15.044,30.963-23.719
	c2.023-1.86,3.93-5.965,7.533-4.993c-2.541,7.888-6.235,16.077-8.789,24.551c-1.338,4.456-3.609,9.592-5.019,14.148
	c-0.524,1.693-1.519,5.547-1.257,7.074c0.266,1.536,3.754,4.739,5.441,6.66c4.056,4.613,7.962,8.378,7.115,15.397
	c-3.705-1.096-5.166-3.292-8.789-3.745c-15.997-2.008-21.187,15.614-34.731,18.31c1.295-2.521,5.684-7.278,1.677-9.989
	c-2.925,1.114-4.771,3.302-8.37,3.746c-8.935,10.114-17.878,20.227-24.269,32.874c5.149-0.581,10.468-3.616,18.411-1.665
	c5.037,1.239,9.474,7.142,17.156,4.995c0.3-4.876-3.69-5.483-4.604-9.155c13.223-2.066,19.982,15.874,33.894,14.562
	c4.647-0.435,5.774-4.903,10.461-4.574c-0.753,4.26-2.463,7.038-5.02,10.82c-1.785,2.634-6.776,6.62-7.114,9.57
	c-0.518,4.54,4.199,9.695,6.276,13.732c2.463,4.781,3.828,9.228,6.277,13.315c-3.658-0.011-7.581-3.247-10.462-5.408
	c-3.803-0.825-7.158-1.544-10.461-2.916c-3.078-1.272-6.343-4.016-9.203-3.741c-5.855,0.558-10.499,13.444-20.503,11.648
	c2.625-3.633,8.036-7.954,7.533-12.898c-0.089-0.844-2.755-5.926-3.767-7.491c-4.041-6.241-12.942-11.115-12.554-18.312
	c2.884,0.982,5.814,5.061,9.626,2.501c-0.201-3.562-1.838-4.907-1.676-7.907c-4.697-4.376-12.095-5.907-17.156-4.996
	c-17.508,3.154-23.819,38.624-3.346,39.951c0.722,0.945,1.007,2.322,0.837,4.161c-7.505,0.583-12.041,4.116-12.555,11.65
	c-2.568,1.046-4.168,0.886-7.113,0.416c-2.103-6.369-5.499-11.454-13.808-11.648c-0.277-4.87,4.899-4.769,7.113-6.244
	c15.398-10.27-0.374-48.681-23.432-37.036c-3.14,2.425-6.395,4.739-5.44,11.237c3.693,2.445,6.88-1.378,9.205-2.913
	c1.182,10.202-7.186,14.481-12.553,19.557c-4.179,6.316-1.711,13.215,0.837,19.974c-8.592-1.858-12.765-8.113-18.831-12.482
	c-10.509,3.003-18.31,8.7-27.198,13.315c3.327-9.651,9.84-17.148,12.554-28.714c-4.187-5.824-10.048-9.98-10.88-19.14
	c1.77,1.151,3.926,1.92,5.44,3.329c17.605,3.891,22.061-10.677,33.475-12.898c-1.132,3.195-4.678,6.927-2.092,11.233
	c3.144,0.216,3.185-2.657,6.694-2.08c5.367-5.95,20.914-8.175,28.454-2.497c0.594-6.453-5.619-10.041-8.787-14.564
	c-4.44-6.343-7.806-14.002-13.808-19.143c-4.504-0.239-6.054-3.411-7.952-6.243c-2.162,0.934-3.726,3.057-3.766,5.41
	c-0.042,2.599,2.464,3.859,1.674,5.828C28.822,87.77,26.555,69.333,8.787,73.019c-3.333,0.693-4.363,3.645-7.949,3.329
	C2.174,65.331,9.897,60.666,16.32,54.711C11.718,37.653,5.522,21.682,0,6.437c4.788,0.654,7.978,5.259,11.718,8.324
	c3.763,3.085,7.892,6.096,10.461,9.985c3.544,1.192,5.566,3.757,8.369,6.242c2.081,1.848,5.507,6.23,7.949,6.659
	c3.518,0.619,8.553-3.018,12.555-4.16c4.625-1.322,8.766-2.499,14.227-0.833c-1.249,2.365-3.181,4.05-5.022,5.826
	c-5.046,9.257-3.625,17.899,0.418,26.216c1.664,3.423,5.571,5.418,4.183,10.405c-1.998-2.42-6.583-5.167-10.041-2.499
	c1.726,3.503,0.65,6.693,1.673,10.819c0.556,2.246,2.662,3.261,4.184,5.41c1.738,2.451,3.497,5.509,5.44,8.323
	c6.121,8.879,10.891,19.607,18.411,27.048c1.518-4.641-1.403-9.307,0.418-12.901c-3.144-10.924,1.262-25.828-10.879-28.711
	c0.285-1.937,2.288-2.163,4.184-2.499c4.33-4.455,6.586-11.839,6.695-19.142c0.148-10.053,0.095-22.47-2.512-29.127
	c-3.239-8.28-10.484-18.062-19.666-20.39c-3.329-0.845-7.095-0.317-9.623,0.831c2.067,3.045,4.842,6.442,1.674,10.402
	c-8.574,4.332-15.292-7.211-7.951-12.898c0.769-0.599,1.028,0.452,2.091,0c1.103-0.473,2.081-2.338,2.512-2.499
	c12.846-4.758,21.62,6.508,28.453,12.069c4.515-3.416,4.329-11.509,5.439-18.31C87.827,0.268,89.645-0.321,92.475,0.195z
	 M16.738,36.815c8.67,9.41,14.638,21.508,23.85,30.377c-6.556-3.2-15.914-6.509-23.85-4.577c-3.09,0.751-9.003,3.673-8.369,7.075
	c2.799-1.709,9.48-1.621,13.808-1.666c9.119-0.092,15.534,5.162,22.177,7.908c1.866-1.475,4.948-1.738,5.858-4.161
	c-4.408-11.457,0.927-26.682,6.695-35.372c-11.465,3.544-14.995,16.307-12.553,28.297C32.696,48.967,23.677,30.608,8.37,18.507
	C9.495,26.048,15.926,30.324,16.738,36.815z M138.922,55.125c-0.984,1.491-1.863,4.904-4.604,5.826
	c1.942-11.855-3.513-23.358-11.713-23.718c4.424,8.012,9.3,23.124,4.181,34.123c1.269,2.067,3.159,3.516,5.441,4.578
	c7.846-5.553,18.304-9.143,30.545-7.075c1.786,1.149,3.425,2.846,5.858,1.249c0.571-2.199-3.227-3.376-4.182-5.411
	c-4.077-1.534-9.076-2.729-14.227-2.08c-4.488,0.565-7.612,3.379-10.46,3.329c8.873-14.338,19.634-26.8,27.615-42.03
	c0.021-0.714-0.323-1.066-0.837-1.248C156.099,32.261,147.531,43.71,138.922,55.125z M141.014,128.781
	c-1.921-0.668-2.445-2.008-4.186-1.667c-0.882,0.177-5.774,5.5-5.857,5.83c-0.885,3.508,2.782,8.076,3.347,12.898
	c0.659,5.598-0.388,9.584,0.42,13.733c6.93-4.839,4.487-17.136,1.676-23.303c9.513,8.429,17.717,18.169,28.869,24.968
	c-4.513-12.434-16.243-17.694-23.431-27.464c1.913-0.238,1.487,1.849,2.928,2.08c6.712-0.613,18.55,3.413,20.922-4.997
	C157.921,132.906,147.302,130.968,141.014,128.781z M38.079,127.948c-5.737,5.346-16.876,3.25-25.526,2.91
	c3.031,6.066,12.547,5.02,18.412,6.246c-6.644,6.986-16.012,11.26-19.247,21.637c10.786-4.113,16.704-13.074,24.687-19.976
	c-2.859,6.293-2.978,18.14,2.929,20.391c-1.056-7.688,0.905-18.04,4.183-24.97C42.006,131.811,40.122,129.801,38.079,127.948z"/>
<path style="display:none;fill-rule:evenodd;clip-rule:evenodd;" d="M393.878-212.273c-2.02,6.567-6.682,12.92-10.905,19.295
	c-1.351,2.041-3.648,4.799-3.775,6.291c-0.348,4.074,5.683,11.886,7.55,16.359c2.296,5.501,4.845,13.126,5.872,18.037
	c6.379,30.47-5.253,56.713-20.132,75.92c3.637,9.363,8.738,17.269,12.165,26.844c-10.101-3.046-16.208-10.081-25.168-14.262
	c-11.1,4.789-23.566,12.561-37.749,15.101c-26.623,4.762-50.445-5.864-65.856-16.777c-3.906-3.506-7.754-7.069-12.583-9.649
	c1.112,12.111-8.87,25.533-20.973,18.456c-6.559-3.836-6.282-20.139,5.453-15.52c3.139,4.349-0.636,8.813-6.293,6.714
	c2.345,10.364,14.171,5.95,16.778-0.84c1.922-5,0.931-12.561-0.838-16.776c-2.664-6.353-7.785-13.33-11.745-20.556
	c-1.845-3.366-3.26-7.247-5.033-10.902c-3.469-7.158-7.448-15.477-3.775-24.75c4.137,12.348,12.339,33.871,26.845,35.652
	c5.468,0.672,9.463-1.639,11.325-5.452c9.551,8.797-1.061,19.3-13.423,13.422c-3.242-1.539-4.637-3.728-7.129-5.031
	c2.643,10.155,16.153,23.74,30.62,27.263c12.415,3.025,31.89-1.679,28.521-19.716c-0.861-4.615-4.477-6.826-7.969-9.646
	c-2.526,0.815-4.004-0.751-6.71,1.259c0.413,3.107,3.849,3.247,3.772,6.712c-0.071,3.341-4.541,6.052-8.388,5.032
	c-6.493-1.72-5.071-13.043,0.419-15.518c13.271-6.558,25.615,5.205,24.328,18.457c-0.782,8.042-9.643,16.501-17.197,18.453
	c-7.434,1.926-15.123-0.419-22.23-2.515c-0.58,2.782,2.964,4.672,5.034,5.871c7.065,4.093,16.745,7.289,25.164,10.07
	c11.852,1.99,28.317,2.109,38.174-0.42c7.528-4.076,16.797-6.41,22.646-12.165c-2.167-4.54-6.718-6.704-10.485-9.646
	c-7.076,3.557-13.865,9.608-23.488,9.226c3.023-7.384,6.168-14.545,3.355-22.648c-2.536-7.305-11.473-13.169-10.486-23.071
	c3.588,0.789,4.233,6.618,9.227,4.614c2.181-1.072,0.245-5.168,0.419-7.97c-11.123-16.221-32.902,0.642-45.718,1.679
	c-21.423,1.73-35.626-11.489-42.783-26.007c-7.783-15.785-0.698-41.813,8.387-54.109c-1.938-10.643-8.317-16.846-10.903-26.843
	c3.83,0.367,7.477,4.063,12.163,6.71c3.558,2.009,8.934,7.005,12.583,7.131c3.593,0.122,6.245-3.773,10.067-5.454
	c1.238-0.544,3.185-0.727,4.613-1.257c11.069-4.121,26.428-7.902,40.268-7.551c15.05,0.383,27.767,4.724,39.426,10.066
	c2.26,1.034,4.875,2.291,6.711,3.356c6.261,3.63,9.003,10.528,17.198,7.13C378.125-205.065,387.191-210.505,393.878-212.273z
	 M259.655-203.464c2.12,2.449,8.829,9.742,12.582,9.647c2.602-0.065,6.241-4.054,9.229-5.452c4.483-2.097,9.033-3.51,13.421-2.517
	c-1.313,4.813-4.494,7.538-4.612,12.584c-0.229,9.709,9.109,16.575,9.228,25.165c-2.659-1.553-6.941-4.979-9.649-1.677
	c0.775,2.444,2.651,3.782,2.1,7.55c2.692,4.219,6.456,9.777,7.13,16.359c0.235,2.304-1.24,6.75,1.678,7.969
	c9.157-7.212,21.18-13.759,22.231-27.684c-4.275-2.935-7.309,3.124-10.067,2.936c-0.818-10.937,8.608-15.124,12.166-23.069
	c2.014-9.098,0.126-14.854-4.194-20.972c11.795-0.312,18.302,8.244,26.422,13.001c4.748-1.685,8.834-4.031,11.746-7.55
	C339.467-220.588,284.803-223.29,259.655-203.464z M242.038-205.142c0.047,0.114-0.058,0.311,0,0.42
	c7.548,14.139,20.999,25.085,29.361,36.911c-7.381-2.719-18.511-1.257-21.392,4.614c7.9-0.605,14.444-0.84,21.811,0.838
	c1.921,0.439,3.332,1.917,5.033,1.679c1.879-0.265,6.265-4.354,6.711-6.292c0.459-1.987-0.722-4.794-0.84-7.131
	c-0.371-7.448,1.874-14.686,3.358-20.552c-7.711,3.884-9.361,14.162-9.229,24.747c-10.169-13.181-20.341-26.359-33.976-36.074
	c-0.092-0.326-0.352-0.486-0.839-0.418C241.874-205.802,241.535-205.693,242.038-205.142z M380.458-201.366
	c-0.566,0.087-0.862,0.601-1.261,0.837c-10.753,6.417-22.84,17.463-31.879,26.005c-3.39,3.206-5.777,6.967-9.227,9.229
	c2.604-8.766,3.779-20.782-3.775-26.006c-1.126,9.542,0.837,21.779-3.774,29.36c1.327,1.418,2.584,5.064,5.451,5.454
	c1.769,0.239,4.082-1.463,5.875-1.678c11.648-1.393,19.249,2.563,26.844,5.033c-3.429-8.736-14.15-10.179-25.169-11.324
	c14.013-10.877,28.093-21.682,37.754-36.911C381.015-201.366,380.737-201.366,380.458-201.366z M250.846-177.458
	c-0.101-3.859-5.673-8.928-8.391-10.487c-4.027,2.605-6.336,8.44-7.967,13.842c-11.965,39.617,32.886,72.05,59.562,42.363
	c2.796-12.393-1.42-23.663-13.005-24.326c-3.32,3.594,0.909,6.814,2.099,9.646c-15.296,3.252-23.69-20.761-41.106-10.486
	C237.569-165.401,251.019-170.837,250.846-177.458z M379.616-97.343c2.947-4.922,5.306-12.315,6.712-18.037
	c5.851-23.823,0.103-48.5-12.582-62.917c-4.291,2-6.318,6.266-8.39,10.486c4.375,7.097,10.623,14.535,10.064,25.166
	c-4.453-2.263-6.945-5.571-11.742-6.711c-12.69-3.013-20.142,10.421-31.458,9.228c-0.334-2.823,6.198-6.062,2.937-10.486
	c-3.975,1.268-5.24,2.648-10.907,2.097c-6.364,6.637-14.277,11.725-19.714,19.294c6.094,2.854,14.349,3.546,18.456,8.387
	c4.115-0.71,4.88,3.045,8.39,1.68c1.651-3.833-3.308-6.288-2.936-8.81c12.363,0.949,16.187,14.23,28.52,15.521
	c6.548,0.687,10.377-2.608,15.521-5.035c0.777,6.915-3.076,13.005-5.872,17.617c-1.317,2.175-4.011,4.353-4.195,5.875
	c-0.451,3.679,3.942,7.585,6.292,10.486C373.211-86.269,376.446-92.042,379.616-97.343z M331.382-112.024
	c-1.089,1.707-2.977,2.615-3.776,4.615c4.584,9.868,1,23.542-1.679,31.458c8.541-2.338,11.066-12.852,9.649-22.652
	c5.824,5.779,10.927,12.282,15.938,18.876c3.267,1.765,6.285,3.779,7.551,7.548c6.169,1.242,6.69,8.131,13.003,9.23
	c-7.001-12.012-15.409-22.622-25.588-31.459c-2.096-3.659-6.8-6.868-7.967-10.066c7.844,4.062,19.883,4.656,24.327-2.52
	C353.575-105.778,341.109-107.638,331.382-112.024z"/>
</svg>
