<?xml version="1.0" encoding="iso-8859-1"?>
<!-- Generator: Adobe Illustrator 30.3.0, SVG Export Plug-In . SVG Version: 9.03 Build 0)  -->
<svg version="1.1" id="Layer_1" xmlns="http://www.w3.org/2000/svg" xmlns:xlink="http://www.w3.org/1999/xlink" x="0px" y="0px"
	 viewBox="0 0 177 177" style="enable-background:new 0 0 177 177;" xml:space="preserve">
<radialGradient id="SVGID_1_" cx="82.6358" cy="197.1035" r="619.0404" gradientUnits="userSpaceOnUse">
	<stop  offset="0" style="stop-color:#FFFFFF"/>
	<stop  offset="0.3288" style="stop-color:#FCFCFC"/>
	<stop  offset="0.4654" style="stop-color:#F4F5F5"/>
	<stop  offset="0.5665" style="stop-color:#EAEBEB"/>
	<stop  offset="0.65" style="stop-color:#DBDCDE"/>
	<stop  offset="0.7227" style="stop-color:#C8CACC"/>
	<stop  offset="0.7879" style="stop-color:#B0B3B5"/>
	<stop  offset="0.8475" style="stop-color:#96989B"/>
	<stop  offset="0.9027" style="stop-color:#797A7D"/>
	<stop  offset="0.9522" style="stop-color:#565759"/>
	<stop  offset="0.9987" style="stop-color:#050506"/>
	<stop  offset="1" style="stop-color:#000000"/>
</radialGradient>
<rect x="-233.364" y="-14.897" style="display:none;fill-rule:evenodd;clip-rule:evenodd;fill:url(#SVGID_1_);" width="648" height="432"/>
<g>
	<path style="display:none;fill-rule:evenodd;clip-rule:evenodd;" d="M-48.004,8.013c-3.492,2.851-7.724,4.055-10.906,7.13
		c-3.54,3.424-5.994,7.957-8.39,12.584c10.302,13.35,21.934,32.211,22.232,54.109c0.067,4.864-0.199,10.622-0.841,15.937
		c-2.887,23.949-13.766,42.385-28.519,54.95c-1.39,1.181-3.263,2.136-5.035,2.516c0.12,2.076-1.174,2.737-1.679,4.195
		c1.173,7.237,10.953,11.183,18.456,8.387c3.267-1.216,4.411-4.182,6.711-5.871c-4.229,0.006-7.997-0.17-8.807-3.775
		c-2.246-10.005,12.399-10.371,13.842-1.676c2.065,12.449-13.978,19.31-26.427,15.937c-5.407-1.464-7.823-5.048-12.162-7.551
		c-21.85,9.759-52.787,13.19-77.599,4.195c-6.337-2.297-11.811-6.414-17.617-8.391c-6.521,5.681-19.881,11.743-29.361,5.875
		c-2.168-1.341-5.301-4.349-6.291-5.875c-4.031-6.199-2.492-18.272,8.389-15.097c4.707,3.645,2.727,11.599-3.776,11.742
		c1.535,5.584,6.893,9.097,13.842,7.131c3.896-1.103,8.766-7.111,8.808-9.227c0.066-3.287-6.096-6.779-8.808-9.646
		c-8.317-8.8-15.919-22.389-19.295-35.653c-5.668-22.271-1.324-45.311,5.453-61.24c2.32-5.454,6.084-9.887,8.389-15.52
		c2.248-3.799,7.737-6.496,7.971-10.906c0.273-5.192-6.093-8.454-7.551-13.423c-2.664-2.089-5.881-3.625-7.968-6.291
		c11.703-1.503,22.891,5.483,31.877,9.229c14.224-8.512,28.508-11.628,45.72-13.004c2.016-0.16,4.272-0.142,6.293,0
		C-113.997-0.009-100.219,4-87.853,11.368c1.929,1.147,4.308,3.99,5.875,4.195c2.044,0.265,6.252-1.939,8.806-2.937
		c2.823-1.103,5.885-2.278,8.39-2.935C-58.514,8.045-53.281,5.35-48.004,8.013z M-160.836,8.433
		c-3.17,1.109-14.394,4.459-14.68,7.13c-0.159,1.472,4.151,5.46,5.454,6.711c8.03,7.714,16.012,15.08,19.712,24.328
		c6.015,6.571,8.438,16.729,13.003,24.748c2.907-17.921-2.157-37.123-10.486-47.818c6.414-2.955,12.854-9.878,10.486-18.874
		C-145.831,4.176-152.405,5.48-160.836,8.433z M-128.958,5.915c-1.512,9.106,3.919,14.787,10.067,17.617
		c-8.148,11.107-14.057,28.589-12.582,46.559c10.486-20.971,25.7-37.214,43.201-51.171C-97.745,11.512-116.512,5.033-128.958,5.915z
		 M-191.455,20.177c6.359,6.911,13.736,15.441,20.972,20.133c2.319,1.504,5.822,1.497,6.711,4.615
		c-12.605-2.729-26.393-0.908-28.523,10.906c3.91-1.405,7.046-3.581,10.486-5.453c7.253-0.496,14.123-1.957,20.134-0.42
		c4.391,1.121,7.184,4.87,11.324,5.033c-2.252-7.06-8.255-12.74-13.842-18.037c-9.938-9.421-20.957-19.863-34.814-24.746
		C-197.772,15.908-194.156,17.241-191.455,20.177z M-87.013,27.307c-3.206,2.192-6.854,4.275-10.067,6.711
		c-6.27,4.753-16.589,12.692-17.617,20.135c-0.413-1.797,0.813-0.306,1.26-0.42c9.862-2.536,21.491-3.072,30.199,1.678
		c2.905,1.584,4.581,4.497,7.971,3.356c-2.857-10.538-16.176-15.031-28.523-12.164c4.652-4.765,11.347-5.844,16.357-9.648
		c5.294-4.016,8.53-10.221,14.682-13.001c0.137-3.639,3.867-3.685,4.615-6.711C-76.899,18.216-81.114,23.276-87.013,27.307z
		 M-195.65,28.565c-2.934,2.282-4.996,6.385-7.969,10.907c-6.49,9.87-12.704,23.943-13.842,37.331
		c-1.674,19.697,2.982,36.482,9.646,50.333c5.834,6.889,9.162,16.286,17.617,20.553c5.591-17.232-13.157-24.458-13.422-41.945
		c-0.319-21.152,25.82-31.478,45.3-22.65c9.459,4.286,14.023,13.417,20.134,20.134c-1.025-20.366-0.252-46.5-22.231-45.719
		c-1.497,2.809-3.801,4.568-3.355,7.967c0.44,3.358,3.765,3.668,5.033,6.292c-11.727,2.309-18.325-17.75-31.458-11.744
		c-3.513,1.606-5.011,6.491-8.388,7.551c-2.231-13.112,4.473-22.738,12.164-28.523C-189.33,35.39-190.952,30.439-195.65,28.565z
		 M-76.527,147.689c7.605-11.658,20.894-25.349,23.488-43.621c0.656-4.598,2.069-9.963,2.099-15.101
		c0.12-21.95-8.069-41.581-19.296-54.529c-0.28,0-0.56,0-0.836,0c-2.608,2.308-5.652,5.669-5.454,8.808
		c0.123,1.958,2.656,3.841,3.775,5.872c1.686,3.063,2.789,6.784,3.355,10.486c0.529,3.464,2.417,8.514-0.84,11.325
		c-2.086-1.408-2.515-4.473-4.191-6.291c-16.009-9.339-22.273,13.814-36.494,8.389c2.291-2.174,5.055-2.539,5.451-5.873
		c0.546-4.551-3.659-7.991-7.13-7.968c-16.395,0.099-22.161,31.18-20.553,44.462c5.301-8.746,13.832-18.885,26.008-20.974
		c14.398-2.47,27.915,4.076,33.555,11.324c3.901,5.014,6.421,12.244,4.614,20.973c-2.84,13.722-16.101,20.276-15.101,37.333
		C-80.93,151.392-79.582,148.689-76.527,147.689z M-192.295,91.063c-1.901,3.14-5.532,4.396-7.129,8.809
		c-2.511,6.93,0.599,17.488,6.291,19.713c2.71,1.058,9.816,1.127,10.067-3.355c-6.793-0.918-6.709-10.855,0.419-11.326
		c0.886,1.492,3.496,1.26,4.613,2.519c5.835,9.06-3.079,17.006-13.421,16.358c5.033,8.249,11.152,15.412,10.066,29.778
		c6.021,5.025,12.633,9.459,23.07,10.066c1.205-2.737,4.494-1.362,7.55-2.096c3.516-0.843,5.154-3.765,5.871-7.551
		c-7.474-3.895-17.579-6.24-21.391-14.681c-5.49-12.152,2.736-24.489,11.324-29.78c0.951,8.518,6.54,15.078,15.1,13.422
		c3.137-14.817-4.453-29.219-17.615-27.263c-4.979,0.74-6.646,4.717-10.486,7.55C-169.831,93.046-180.699,87.632-192.295,91.063z
		 M-97.08,120.425c-0.669-1.707-1.023-5.182-0.419-6.711c1.789-4.526,11.377-7.285,13.002-1.26c1.993,7.387-5.776,4.182-6.291,7.551
		c-0.713,4.676,10.219,2.212,12.585,0.839c4.547-2.645,6.233-9.083,5.872-13.841c-1.021-13.47-17.378-17.296-25.587-9.23
		c-2.147,2.113-1.857,4.161-5.031,6.294c-11.438-17.058-36.154,0.161-28.943,19.293c8.8,0.123,12.899-5.82,15.937-12.582
		c12.575,7.216,16.166,28.404,2.938,36.91c-1.549,0.996-4.297,2.273-7.131,3.354c-3.034,1.158-8.273,1.106-8.81,3.776
		c-0.355,1.771,3.25,5.779,4.195,6.291c2.028,1.099,5.588,0.355,7.131,1.26c1.478,0.863,0.962,3.113,2.935,3.355
		c3.813-0.905,8.131-1.168,11.746-2.516c2.833-1.058,8.943-4.031,10.066-6.294c0.772-1.554,0.171-3.431,0.42-5.032
		c1.69-10.882,10.354-16.221,13.002-26.007C-86.927,128.095-94.994,125.743-97.08,120.425z M-155.801,139.298
		c0.876-4.871,0.109-8.817,0.418-14.258C-163.487,116.165-167.212,140.694-155.801,139.298z M-110.501,127.976
		c-0.294-1.065-1.925-4.653-3.776-4.615c-4.911,0.096-2.686,10.609-2.515,15.521C-112.095,138.609-109.416,131.908-110.501,127.976z
		 M-152.866,127.555c-1.535,2.997-0.874,9.756-0.419,13.422c1.393,0.983,2.725,2.028,5.453,1.676
		c1.801-3.611,1.135-8.237,0.42-13.001C-148.878,128.6-150.225,127.433-152.866,127.555z M-125.603,143.074
		c1.95,0.593,4.66-0.665,6.291-1.676c0.321-3.567,1.247-10.152-0.419-13.002C-127.453,128.129-127.718,136.809-125.603,143.074z
		 M-144.057,130.911c-1.101,3.841-0.903,8.708,0,12.583c1.508,0.73,3.504,0.973,5.873,0.839c1.137-3.308,0.495-8.199,0-12.166
		C-139.384,130.993-141.519,130.751-144.057,130.911z M-135.249,133.008c0.181,4.536-0.75,7.929,0.84,11.325
		c1.597,0.543,4.171,0.15,5.872-1.259c0.147-2.864,0.444-8.589-0.84-11.323C-131.688,132.007-133.477,131.57-135.249,133.008z"/>
</g>
<g>
	<path style="display:none;fill-rule:evenodd;clip-rule:evenodd;" d="M255.021,234.905c2.23-4.583,3.813-11.931,9.229-13.843
		c10.41-3.678,15.107,7.498,9.229,13.004c-2.511,0.602-4.553-0.05-6.295-1.258c-1.078-2.816,0.199-5.245,1.681-6.712
		c-8.043-3.151-10.206,8.692-10.487,14.681c0.827,1.413,3.42,1.057,4.615,2.099c0.116,1.419,0.662,2.408,0.418,4.192
		c-1.408,1.335-1.947,1.054-4.615,1.26c-1.53,9.757-1.331,21.408-0.418,31.038c3.647-5.566,3.701-15.425,8.807-20.552
		c5.121-11.518,12.856-20.421,22.652-27.266c2.69-2.429,5.68-6.51,10.062-5.871c0.93,3.716-2.737,3.857-4.191,6.71
		c-3.809,7.495,0.369,19.644-6.295,26.006c1.278,4.008,5.845,4.391,7.976,7.552c3.221,4.784,2.859,10.739,3.351,18.454
		c-2.246-0.684-2.546-3.325-4.192-4.613c-17.332-11.27-42.727,0.891-38.594,24.747c4.432-7.176,10.74-12.476,19.718-15.101
		c4.807,1.656,7.79,0.8,11.741,2.938c10.043,5.419,11.716,16.855,11.75,27.684c0.033,10.503-2.164,19.456-5.871,26.844
		c-5.455,10.858-13.128,19.156-14.261,29.781c-0.759,7.087,2.02,10.955,5.87,13.422c5.626,0.704,10.234-1.747,9.229-6.291
		c-1.623-0.856-2.854,0.15-5.036-0.419c-4.268-3.281-1.518-10.63,5.453-8.81c8.786,6.771,3.455,21.682-8.808,20.132
		c-6.682-0.843-10.301-7.148-10.909-14.678c-1.699-21.266,16.774-30.964,18.877-49.075c-5.406,5.283-10.39,12.878-19.292,13.422
		c-6.356,0.388-11.115-3.708-11.744-9.647c-1.296-12.175,6.958-20.877,15.52-24.749c-0.26,4.637-3.987,5.805-3.775,10.907
		c2.587,12.592,19.927,6.698,20.132-6.71c0.158-10.353-10.315-22.075-23.907-17.199c-15.081,5.408-15.914,26.193-14.687,45.718
		c0.567,8.957,2.842,13.678,10.487,17.197c-1.379,2.55-4.048,2.399-5.872,4.195c-3.022,2.99-3.876,8.862-3.773,13.843
		c0.089,4.119,1.528,7.734,5.455,9.649c1.863-0.113,3.522-2.138,5.454-0.84c-3.135,12.602-22.878,13.025-25.588-0.419
		c3.365,0.105,7.284,0.163,8.807-2.936c2.355-4.792,1.16-15.982-3.774-19.297c-2.062-1.386-4.076-0.252-5.451-2.517
		c1.355-3.256,6.215-5.307,7.549-9.226c2.407-7.075,1.212-17.402,0.837-25.167c-0.703-14.751-4.914-28.053-18.033-30.201
		c-13.65-2.236-22.611,15.199-14.681,28.101c2.022,1.892,4.928,3.438,7.967,2.94c7.564-1.249,6.261-12.251,4.198-17.619
		c9.183,1.027,19.675,26.508,8.808,33.556c-7.982,5.179-14.952-3.184-20.554-6.71c-0.266,4.829,3.574,8.372,5.871,12.161
		c4.069,6.716,7.896,12.906,10.907,21.393c0.375,4.119,0.733,11.822-0.421,16.78c-2.297,0.741-2.765,4.205-5.034,5.871
		c-5.93,4.355-17.088,0.799-18.453-5.035c0.316-6.486,0.143-13.661,6.291-13.841c3.15-0.094,5.819,2.419,5.874,7.13
		c-0.518,0.185-0.863,0.536-0.839,1.26c-1.769,1.048-4.527,1.048-6.295,0c-2.929,11.592,13.743,9.625,15.521,0.42
		c0.668-3.465-0.469-10.588-1.26-13.006c-3.546-10.82-15.222-21.668-19.293-35.229c-2.458-8.189-2.097-26.09,1.679-33.14
		c4.844-9.053,18.849-15.255,29.779-6.29c3.482,2.853,2.86,5.613,7.967,9.646c5.429-18.243-14.739-36.931-31.874-28.523
		c-3.804,1.868-4.414,5.614-8.808,7.551c-1.29-13.648,3.997-21.234,12.998-25.585c0.718-2.764-2.396-4.396-2.935-6.712
		c-1.693-7.257-1.679-13.921-5.032-20.134c-1.276-2.358-3.833-3.756-4.194-6.291c1.662-0.173,6.079,1.748,7.971,2.936
		c3.679,2.312,6.873,6.579,10.485,10.066c9.93,9.592,19.398,22.634,22.229,37.751c2.949-2.752,1.018-7.38,0.839-11.325
		c-0.231-5.223,0.739-10.922-0.839-15.521c-1.996-2.355-5.468-1.501-5.45-4.612c0.013-2.983,3.561-2.247,5.034-5.033
		c-0.267-7.507-4.349-18.447-11.325-13.843c0.678,3.224,2.559,1.643,2.516,4.614c-0.1,6.979-12.838,2.814-9.227-5.873
		c2.086-5.019,12.199-5.564,16.776-1.678C253.367,226.287,254.076,231.847,255.021,234.905z M280.606,247.068
		c-2.191,2.611-3.81,6.346-5.872,9.648c-3.829,6.148-9.141,11.155-9.646,18.875c7.162-5.166,19.887-10.069,29.362-2.935
		c-1.064-8.027-12.747-10.336-20.132-7.131c5.714-7.287,12.057-13.949,14.261-24.748c-0.09-0.471-0.471-0.653-0.841-0.838
		C286.034,242.966,282.762,244.499,280.606,247.068z M239.5,265.105c-7.93-3.062-17.057,0.708-18.453,7.13
		c7.579-7.606,21.171-0.662,26.843,2.936c1.441-2.69-2.017-3.757-1.26-7.13c-5.825-9.829-11.382-19.934-20.551-26.424
		C226.783,251.55,235.049,257.529,239.5,265.105z"/>
</g>
<g>
	<path style="display:none;fill-rule:evenodd;clip-rule:evenodd;" d="M378.605,250.733c-16.62-3.126-6.639,24.798-15.521,30.62
		c-0.184-2.067-0.03-6.932-2.936-7.549c-2.724,0.913-2.648,4.619-5.031,5.871c0.844,10.261-7.346,18.569-12.586,26.425
		c3.711,0.969,8.442-1.371,11.746-2.937c20.897-9.901,41.648-34.616,37.75-63.755c-0.58-4.34-3.249-10.456-8.811-9.647
		c-3.331,0.485-3.112,4.546-6.29,5.453c-3.186-9.64,10.991-13.544,18.036-10.066c11.845,5.85,11.241,27.729,5.451,40.268
		c-1.611,3.488-4.387,5.983-4.192,7.968c0.396,4.11,12.679,10.401,7.549,17.617c-9.936-12.477-21.554,0.495-30.619,6.292
		c-5.857,3.746-12.316,5.693-16.359,9.227c1.845,2.559,4.767,0.949,7.132,0.84c11.31-0.527,20.031,0.218,29.359-3.357
		c5.694-2.181,9.545-1.916,14.261,2.098c0.147,3.082-0.047,5.825-0.836,7.971c-3.304,2.271-8.967,5.782-12.165,1.257
		c-6.234-1.298-14.17-2.969-22.648-3.355c-5.69-0.259-12.63-1.129-16.359,1.679c4.733,2.94,11.223,4.884,17.195,9.647
		c6.552,5.219,15.419,16.592,25.588,11.324c2.233-1.156,2.301-2.918,4.615-4.614c4.495,6.052-2.171,13.917-5.875,17.197
		c8.917,11.179,12.733,36.767-0.419,46.56c-5.967,4.445-21.355,4.679-20.553-6.712c3.604,0.684,6.075,7.077,11.745,3.355
		c3.015-1.979,4.64-6.989,5.034-11.746c1.503-18.151-9.144-38.615-18.876-47.396c-8.278-7.465-17.988-15.534-30.199-17.616
		c4.712,7.752,12.051,15.05,10.903,27.264c1.631,2.146,3.617,3.935,5.454,5.871c1.649-1.147,2.54-3.053,2.096-6.292
		c8.496,2.837,3.633,16.348,6.712,23.908c2.081,5.109,5.43,5.329,9.23,8.391c-1.777,4.772-8.871,2.87-13.005,5.035
		c-2.52,1.317-2.376,3.544-4.611,5.031c-0.024,1.25,1.23,2.13,0.42,2.935c-2.711,2.883-2.689,12.747-6.712,13.006
		c-3.341,0.212-4.451-6.692-5.871-9.649c-1.911-3.966-4.117-6.633-5.875-9.227c-7.288-1.611-13.793-1.494-18.035-5.871
		c4.242-3.011,8.978-2.451,11.745-6.294c5.865-8.142,0.123-22.816,7.55-27.684c0.623,2.734,0.908,5.806,3.352,6.711
		c1.264-1.391,3.807-3.39,4.2-5.871c1.04-6.627-7.701-23.279-13.846-26.005c-1.27-0.566-0.482-1.135-1.256-1.259
		c-5.636-0.885-8.049,1.498-9.647,5.451c-2.341-1.992-4.259-4.409-7.55-5.451c-0.245-1.993-0.608-3.866-0.42-6.291
		c2.182-2.012,5.179-3.211,6.291-6.293c2.418,1.635,3.218,4.461,5.871,5.033c10.685,2.308,14.917-13.372,19.297-18.875
		c1.156-5.161,0.037-9.648-2.517-13.842c-3.591-0.375-3.095,3.339-5.035,4.614c-5.731-0.372-3.546-6.667-4.194-10.486
		c-1.421-8.354-8.172-12.227-14.263-15.939c2.991-3.262,7.334-5.849,11.746-7.129c2.189-0.635,4.388,0.039,6.292-1.259
		c1.652-1.127,1.758-3.547,2.935-6.292c2.104-4.89,5.535-11.083,7.132-14.682c6.562,2.354,8.38,16.43,12.584,20.554
		C368.876,246.801,376.339,244.422,378.605,250.733z M350.918,260.801c-3.893-5.057-8.554-9.339-17.613-9.229
		c6.055,5.967,13.729,10.319,16.777,19.295c1.32,0.275,4.489,0.08,6.291-0.418c0.784-3.881,3.341-7.611,5.031-11.746
		c2.806-3.093,8.148-5.803,8.81-9.648c-7.799,0.31-10.268,5.952-14.68,9.648c0.653-7.82,0.398-19.266-2.097-26.425
		c-0.42,0-0.84,0-1.259,0C349.935,240.364,351.785,251.426,350.918,260.801z M349.661,350.56c-2.579,6.229-4.901,12.72-8.39,18.038
		c-2.198,1.297-4.137,2.849-5.031,5.454c8.513-0.168,12.377-8.585,15.517-15.521c0.554,5.288-1.078,12.423-0.839,19.297
		c0.171,4.826,0.355,11.121,3.358,13.841c3.769-8.539,2.536-22.753,2.097-32.297c1.932,7.018,5.407,12.484,13.422,13.421
		c-0.571-3.611-4.621-5.554-6.712-9.227c-2.109-3.714-2.256-8.391-4.191-12.584C355.425,350.444,352.139,350.08,349.661,350.56z"/>
</g>
<path style="fill-rule:evenodd;clip-rule:evenodd;" d="M173.202,7.532c-3.804,9.892-10.496,16.904-14.28,26.819
	c3.547,6.794,7.813,12.874,11.341,19.694c7.648,18.44,9.551,45.466,1.676,66.205c-1.581,4.17-4.093,9.937-7.139,14.667
	c-2.58,4.01-8.699,9.691-8.819,12.989c-0.136,3.677,4.837,9.112,7.141,13.412c1.056,1.971,1.414,3.898,2.099,5.027
	c1.281,2.118,4.285,3.775,3.78,6.285c-4.181-1.439-8.112-4.198-12.599-6.704c-3.376-1.883-9.59-6.009-13.022-5.865
	c-2.43,0.102-3.061,2.247-5.457,3.771c-8.244,5.245-23.47,10.568-34.439,12.151c-22.095,3.189-42.205-1.292-60.057-10.892
	c-3.763-2.025-9.928-8.15-13.859-8.382c-4.566-0.273-10.303,4.621-14.279,6.705c-5.262,2.756-9.668,4.965-14.279,6.284
	c4.226-10.308,11.377-17.701,15.539-28.075c-1.503-2.97-3.264-5.681-5.461-7.959C7.647,124.598,1.909,114,0.589,102.235
	c-2.659-23.734,4.076-47.339,12.182-62.857c1.824-3.467,6.992-5.722,7.14-9.636c0.091-2.525-5.23-10.217-6.721-12.992
	c-2.6-4.832-5.725-9.093-6.299-13.409c3.836,1.69,8.102,3.84,13.021,6.705c3.323,1.937,8.927,7.086,12.597,7.123
	c2.542,0.026,4.521-2.921,6.719-4.191C64.535-1.636,96.308-4.162,122.804,6.694c3.38,1.385,8.127,3.91,12.181,6.285
	c3.066,1.797,8.781,6.949,11.34,7.124c2.665,0.182,4.251-1.951,6.298-2.933c3.505-1.681,6.987-2.932,10.501-5.028
	C166.609,10.06,170.158,7.647,173.202,7.532z M77.867,7.114c-9.257,1.18-18.482,3.962-25.618,7.541
	c-3.218,1.615-10.059,4.733-10.08,7.543c-0.029,4.141,7.636,6.685,9.66,10.056c5.359-6.803,15.916-14.658,24.778-13.828
	c-2.442,4.996-5.68,7.275-6.3,13.409c-1.601,15.866,13.83,20.401,13.44,32.686c-2.94-2.16-6.924-6.577-12.18-3.772
	c1.658,3.306,2.5,4.833,2.1,10.056c3.94,6.165,9.077,10.734,19.318,9.639c2.916-2.399,5.585-5.042,8.819-7.124
	c0.233-4.518,2.29-7.215,3.36-10.895c-3.547-2.963-7.372,0.891-10.079,2.515c-0.289-11.737,14.061-16.536,14.281-29.333
	c0.108-6.407-3.225-11.388-5.04-15.924c9.321,0.92,15.971,8.07,21.417,14.248c4.31-3.104,9.997-4.832,12.181-10.056
	C126.241,13.847,104.033,3.777,77.867,7.114z M119.864,54.464c4.635-9.791-0.219-19.69-7.141-23.886
	c3.976,10.343,0.501,21.218-1.677,31.008c2.639,7.192,8.411,2.784,15.117,2.096c8.343-0.857,15.677,1.127,22.26,2.096
	c-3.509-7.811-15.25-10.063-25.2-6.705c14.499-11.935,28.921-23.94,39.059-40.227C145.819,28.119,132.588,42.855,119.864,54.464z
	 M22.85,21.359c8.012,12.68,18.37,23.015,28.979,33.105c-9.762-0.963-20.239,0.363-23.52,8.798
	c5.447-1.333,14.819-3.756,21.418-2.933c2.947,2.649,8.449,2.746,11.761,5.029c5.872-3.81,0.623-10.079,0.84-17.181
	c0.27-8.793,4.073-15.248,4.621-22.207c-9.475,2.866-10.019,15.338-10.921,25.56C46.132,39.642,35.562,27.535,22.85,19.683
	C22.362,20.304,22.362,20.74,22.85,21.359z M23.271,59.493c1.692-2.227,10.289-7.714,10.5-10.057
	c0.22-2.477-8.017-10.018-9.661-11.313c-20.932,19.686-23.797,73.133-3.36,95.54c2.852-3.72,6.81-6.335,8.82-10.895
	c-6.21-5.118-11.393-13.497-11.341-23.468c4.387,0.996,8.281,4.119,13.859,4.61c12.664,1.118,21.881-8.976,31.919-10.475
	c-1,2.912-3.223,4.607-3.36,8.381c2.806-0.951,5.98,0.308,8.819-0.419c4.605-1.18,7.208-6.956,10.5-9.637
	c-0.966-2.829-0.289-4.721-0.42-8.382c-4.399-5.668-9.135-10.999-17.638-12.572c-4.667,3.543-0.371,10.294,1.258,13.828
	c-6.382-0.423-10.145-6.532-14.699-10.056c-4.736-3.666-10.577-6.946-16.799-6.285c-5.564,0.59-9.123,4.481-13.44,5.028
	C19.649,68.284,19.702,64.183,23.271,59.493z M147.582,52.786c-0.065,1.388,1.993,5.186,2.939,6.706
	c3.203,5.12,8.805,10.138,7.14,17.18c-6.254-3.327-14.819-6.936-23.939-3.772c-6.647,4.561-14.685,12.136-24.357,10.895
	c3.807-2.052,9.787-6.296,5.878-12.151c-2.242,3.137-5.844,1.941-9.237,2.932c-4.843,1.414-7.23,6.958-10.501,9.636
	c0.119,3.193,0.018,6.164-0.841,8.381c4.427,5.934,9.625,12.556,18.059,12.153c1.942-4.924-2.122-7.338-3.358-10.476
	c12.818,0.573,19.241,13.569,31.918,14.248c6.828,0.365,11.261-3.339,16.798-5.869c-0.424,5.542-2.337,10.531-6.718,15.506
	c-2.523,2.864-9.537,5.286-9.66,8.798c-0.086,2.482,3.539,5.071,5.039,7.123c1.993,2.721,2.656,5.692,5.881,6.289
	c8.631-9.231,16.082-23.669,18.061-39.809c2.709-22.122-3.729-44.722-15.541-58.246c-0.024-0.254-0.062-0.494-0.42-0.418
	C153.369,45.886,147.775,48.828,147.582,52.786z M90.885,95.947c-12.376-3.407-17.251,9.545-20.998,18.438
	c5.295,3.284,9.896-2.742,12.6-3.352c-0.838,10.523-10.837,16-13.441,25.562c-2.817,10.356,2.705,14.656,5.04,21.787
	c-12.036-1.119-17.857-8.44-24.778-14.663c-3.647,2.926-8.241,4.907-10.919,8.798c10.24,11.155,27.312,15.489,46.618,17.599
	c10.564-0.788,22.443-1.095,34.436-5.446c2.721-0.989,14.038-5.944,13.86-9.221c-0.116-2.176-9.082-8.065-10.5-7.959
	c-1.528,0.109-2.412,1.917-3.78,2.933c-3.773,2.803-10.657,6.676-15.538,7.958c-1.629,0.431-4.384,1.34-5.461-0.415
	c3.354-5.354,7.222-9.078,6.72-16.345c-0.841-12.222-12.773-18.302-13.44-30.169c2.961,1.889,5.852,5.77,10.5,4.611
	C101.128,107.878,98.223,97.969,90.885,95.947z M27.048,108.52c3.143,8.133,12.061,12.246,23.1,10.056
	c-11.588,12.041-25.308,21.958-33.598,37.293c5.094-1.76,7.862-5.367,11.34-8.379c3.538-3.062,8.07-5.848,11.76-9.221
	c5.601-5.115,10.998-10.336,15.12-15.921c-1.875,10.38-0.088,24.634,8.817,28.075c0.759-2.538-1.497-4.393-2.098-7.124
	c-2.178-9.916-1.166-22.189,2.52-30.173c-1.73-0.788-2.389-2.642-4.2-3.352C49.763,115.629,35.538,112.563,27.048,108.52z
	 M124.906,114.804c-4.902-0.733-9.061-3.461-12.182-2.514c-5.372,1.627-2.618,6.752-1.677,10.476
	c2.73,10.821-1.654,19.963-2.522,28.076c9.221-2.834,11.863-14.473,9.241-25.563c11.406,12.365,21.991,25.548,37.376,33.941
	c-5.616-9.047-11.808-17.549-18.899-25.143c-4.649-4.979-10.623-8.689-14.697-14.244c10.378,2.506,20.742,0.822,26.036-5.868
	C141.195,113.645,132.417,115.93,124.906,114.804z"/>
<g>
	<path style="display:none;fill-rule:evenodd;clip-rule:evenodd;" d="M-54.994,382.622c-1.824-0.815-4.458,2.283-6.711,0
		c-2.614-4.882,0.898-9.146,5.871-8.386c4.639,0.702,7.199,8.365,5.875,13.001c-1.218,4.246-6.834,8.343-12.585,7.971
		c-8.397-0.547-11.588-9.103-11.746-19.713c-5.693,2.751-8.93,7.789-14.678,11.322c-26.601,16.35-72.337,15.746-98.571-2.517
		c-3.079-2.143-4.859-5.624-8.808-6.709c0.771,10.201-0.447,19.619-11.326,20.132c-3.963,0.188-9.826-2.642-11.325-5.452
		c-3.027-5.674-1.812-15.776,4.194-16.361c7.903-0.767,9.424,11.446-0.419,10.071c-0.906,10.138,14.001,7.795,15.1-0.84
		c0.981-7.712-6.348-14.108-9.649-20.554c-1.809-3.535-1.512-6.542-4.193-8.39c-5.335-13.268-10.884-27.276-11.744-44.041
		c-0.643-12.521,2.261-27.311,6.71-37.751c1.331-3.123,3.88-4.785,3.776-7.969c-0.111-3.355-4.042-6.029-5.872-10.487
		c-4.396-10.699-2.217-30.526,13.421-29.361c2.745,0.205,7.831,2.358,8.388,5.453c0.789,4.364-3.603,8.341-7.548,6.712
		c-3.016-1.245-1.649-3.875-3.356-6.712c-12.524,1.087-8.487,22.728-0.419,25.586c4.571-3.119,7.593-7.786,10.906-12.164
		c18.53-17.915,51.798-30.055,85.147-21.391c16.855,4.378,28.554,11.583,39.849,22.23c2.075,1.957,8.018,9.166,10.486,9.229
		c4.222,0.105,7.681-8.207,7.967-12.585c0.191-2.876-1.045-9.185-3.775-9.228c-3.57-0.057-2.082,5.439-7.967,4.614
		c-7.373-1.034-5.42-11.159,0.836-12.583c11.401-2.593,16.996,11.924,16.361,22.229c-0.185,3.011-1.611,7.37-2.936,10.067
		c-1.259,2.565-4.018,4.835-4.195,7.131c-0.188,2.424,2.174,5.098,2.936,7.13c4.372,11.704,7.841,24.917,7.13,41.106
		c-0.731,16.619-5.482,30.327-11.746,42.783c-3.229,6.428-13.712,16.24-10.066,27.684c1.031,3.235,4.076,6.175,6.711,6.711
		C-58.214,391.558-53.381,389.286-54.994,382.622z M-179.989,239.173c-8.768,7.172-18.844,13.034-23.49,24.328
		c2.63,2.963,7.805,3.382,10.487,6.291c5.103,0.895,8.953,3.632,12.583,5.872c3.835,2.37,7.946,3.918,11.744,6.712
		c9.438,6.942,19.658,19.766,23.069,31.039c1.359,4.495,0.821,12.643,6.711,10.906c1.626-6.511,2.078-22.888,0-31.459
		c-0.642-2.645-2.401-8.436-4.195-8.809c-4.233-0.88-3.943,5.495-5.451,8.39c-4.827-6.008-4.923-15.545-10.906-20.972
		c-2.29-2.079-5.182-3.003-8.809-4.615c-1.949-0.203-4.014,1.261-5.033-0.419c3.356-8.669,13.438-10.612,23.488-12.583
		c4.962-6.784,8.385-15.105,9.649-25.588C-155.957,227.697-167.781,234.74-179.989,239.173z M-125.463,308.801
		c8.319-18.076,25.663-29.966,42.365-39.847c3.065-1.815,11.933-5.825,12.165-8.39c0.232-2.606-6.366-8.316-8.391-10.065
		c-13.179-11.389-33.759-22.399-55.786-22.232c0.668,9.547,7.547,16.494,10.906,24.748c11.029,2.112,20.774,5.51,26.004,13.423
		c-3.222,0.267-5.785-0.379-7.966,0c-13.671,2.362-10.787,20.942-19.297,26.844c0.201-4.114,0.018-7.847-3.775-7.969
		c-0.765,2.145-3.133,5.316-3.775,8.81c-0.879,4.806,0.433,13.604,0.42,20.132c-0.007,4.339-1.575,8.172,1.679,9.646
		C-128.371,318.921-127.698,313.663-125.463,308.801z M-138.045,238.334c-2.215,6.784-3.306,18.485-2.097,27.265
		c0.376,2.73,2.918,5.377,0.837,7.551c-2.17-8.534-13.832-16.862-23.487-10.068c10.146,3.416,18.387,8.736,22.65,18.036
		c2.345,0.222,3.687,0.234,6.709,0.42c4.642-9.341,13.837-14.129,23.071-18.874c-10.241-4.977-20.692,2.612-24.328,9.646
		c1.32-11.577,2.567-25.614-2.099-33.975C-137.206,238.334-137.627,238.334-138.045,238.334z M-75.128,366.264
		c9.356-15.224,20.522-33.185,20.973-57.464c0.239-12.895-3.635-23.306-7.131-33.974c-1.98-0.397-2.12-2.636-3.775-3.355
		c-4.557,2.292-6.008,7.695-8.81,11.743c-2.339-2.224-2.12-5.358-5.452-5.873c-8.151-1.259-9.042,11.629-1.679,11.745
		c3.43,0.054,2.529-1.974,6.711-2.517c1.137,5.041,5.748,8.764,7.551,11.744c-11.196,2.499-16.712-4.256-24.747-5.452
		c-18.034-2.685-34.033,14.401-32.715,31.037c4.875,1.222,4.895-3.576,6.291-5.87c2.464-4.055,7.342-6.937,13.003-7.551
		c3.382-6.043,12.438-10.3,20.552-6.711c3.083,3.768,6.486,7.219,6.711,13.842c12.511,7.134,10.688,26.542-2.096,28.943
		c-1.597,0.3-3.383-0.856-5.035,0c-2.058,1.07-1.847,3.643-3.771,6.291c-2.936,4.033-10.568,8.059-16.78,8.807
		c-3.642,0.439-8.548,1.331-11.323-0.837c0.014-2.642,3.478-1.837,4.611-3.355c1.509-2.966,4.062-4.887,3.355-10.066
		c-2.676-5.188-9.301-9.048-15.518-6.294c-6.649,2.946-8.4,15.02-6.711,23.912c13.644,4.321-4.215,14.372,0.836,24.743
		C-104.448,390.906-88.819,378.445-75.128,366.264z M-209.352,272.727c-13.67,15.572-10.489,59.047-1.677,76.341
		c4.571,8.97,10.798,15.671,18.875,22.65c12.797,11.057,32.171,19.655,53.27,18.453c-0.207-4.505,0.334-9.083-2.517-13.001
		c-2.086-2.868-5.333-3.061-5.034-6.291c0.32-3.472,4.97-3.755,6.711-6.711c1.504-11.158-2.286-22.563-11.325-23.491
		c-10.828-1.106-16.311,10.274-8.809,18.036c1.603,1.195,4.692,0.902,5.453,2.937c-5.742,1.27-13.443,2.594-16.778-1.678
		c-6.651,1.117-11.214-6.9-15.1-11.324c-15.826,1.416-22.558-19.321-10.486-27.684c-1.394-16.109,20.285-22.26,27.265-10.066
		c6.145,0.798,8.952-0.074,12.583,3.355c3.131,2.957,3.305,11.988,9.228,9.226c-0.138-11.544-7.353-22.935-16.359-27.262
		c-3.364-1.617-9.703-3.497-14.68-2.937c-4.027,0.454-8.476,3.342-13.004,4.613c-5.667,1.592-11.1,2.076-17.196,1.261
		c0.948-2.051,3.104-1.708,4.613-2.938c2.965-2.414,3.782-6.284,5.033-10.486c2.717,2.988,4.48,5.37,8.391,4.615
		c6.577-1.273,5.291-11.895-0.84-12.585c-4.526-0.509-4.663,2.355-7.969,3.775C-202.126,277.806-203.411,272.938-209.352,272.727z
		 M-83.097,317.19c0.792-12.255-18.703-11.56-16.778,2.098c-12.735-8.769-20.149,15.354-4.195,14.263
		c-11.814,12.094,15.377,23.743,13.841,3.771c3.216,2.116,5.26,3.387,8.391,2.939c7.724-1.106,9.24-14.507,1.676-15.939
		c-2.799-0.529-3.939,1.684-5.871,0C-85.695,320.323-83.323,320.662-83.097,317.19z M-179.571,309.221
		c-7.738-0.996-13.378,4.128-11.744,10.903c0.62,2.572,3.883,2.886,4.195,5.876c-14.199-2.782-13.5,18.374-1.68,16.356
		c2.98-0.508,3.249-3.396,6.713-4.194c1.703,1.32-0.377,3.03,0,5.454c3.338,8.435,17.366,5.568,16.357-3.775
		c-0.254-2.369-2.453-2.598-2.516-5.874c2.187-0.468,4.569-0.744,6.711-1.257c5.503-5.208,3.081-15.565-4.195-16.36
		c-4.414-0.482-5.635,2.509-8.808,4.615C-175.072,316.991-175.062,310.437-179.571,309.221z M-152.306,332.292
		c0.546,1.969,1.579,3.453,4.613,2.934C-143.569,330.894-150.471,327.044-152.306,332.292z M-124.203,335.225
		c2.062-0.733,4.345-1.245,5.032-3.355C-120.257,326.866-127.281,330.264-124.203,335.225z M-135.109,344.872
		c2.636-3.238,2.516-11.427,0.42-15.097C-140.606,330.071-139.21,343.701-135.109,344.872z M-130.494,338.162
		c1.642-0.311,2.277-1.636,3.771-2.097c0.055-2.43,0.137-4.888-0.836-6.29C-133.119,327.724-131.61,336.216-130.494,338.162z
		 M-140.562,339.001c0.68-1.932,0.68-6.454,0-8.391C-146.917,327.989-145.383,339.708-140.562,339.001z"/>
	<path style="display:none;fill-rule:evenodd;clip-rule:evenodd;" d="M-91.069,330.191c-2.324,3.287-7.994,2.789-8.807-0.836
		C-101.346,322.795-89.218,319.948-91.069,330.191z"/>
	<path style="display:none;fill-rule:evenodd;clip-rule:evenodd;" d="M-173.279,327.255c1.751,9.118-9.472,8.162-9.228,2.101
		C-182.335,325.078-176.213,323.538-173.279,327.255z"/>
</g>
<path style="display:none;fill-rule:evenodd;clip-rule:evenodd;" d="M93.223,223.202c-0.743,3.59-0.481,19.706,5.035,20.136
	c2.863,0.222,7.759-7.624,10.485-9.229c6.548-3.853,21.305-6.964,24.749,2.516c1.416,3.904-0.942,9.472-4.615,10.068
	c-8.361,1.353-9.602-5.038-5.871-10.486c-5.228-2.811-12.31,1.746-16.361,5.033c-7.005,5.681-13.537,17.428-14.261,30.619
	c-0.645,11.85-0.836,26.149,6.294,31.877c1.501,1.21,3.761,0.902,4.191,2.936c-14.591,3.398-12.891,24.823-11.742,41.526
	c3.242-1.125,4.714-7.565,7.971-10.067c3.267-7.495,7.666-13.861,13.423-18.872c2.002-5.271,6.275-8.263,8.386-13.423
	c-0.26-4.178,0.86-6.97,2.1-9.649c-4.094-3.626-7.808,2.014-10.067,4.194c-2.142-10.879,10.613-16.59,8.808-29.78
	c-0.867-6.338-5.328-9.683-7.971-15.1c10.814-0.327,18.439,2.532,25.588,5.871c9.96-7.492,21.589-15.164,31.038-23.908
	c2.028-1.875,3.939-6.013,7.551-5.032c-2.547,7.951-6.25,16.205-8.811,24.747c-1.341,4.491-3.618,9.669-5.031,14.261
	c-0.525,1.706-1.523,5.591-1.26,7.13c0.267,1.548,3.763,4.776,5.454,6.713c4.066,4.649,7.982,8.444,7.132,15.52
	c-3.714-1.105-5.179-3.318-8.811-3.775c-16.036-2.025-21.238,15.738-34.814,18.456c1.298-2.541,5.698-7.336,1.681-10.068
	c-2.932,1.123-4.782,3.328-8.391,3.775c-8.957,10.194-17.921,20.388-24.327,33.136c5.161-0.586,10.493-3.645,18.455-1.679
	c5.049,1.249,9.497,7.199,17.197,5.035c0.301-4.915-3.699-5.526-4.615-9.228c13.255-2.082,20.03,16,33.976,14.678
	c4.658-0.439,5.788-4.942,10.486-4.61c-0.755,4.294-2.469,7.094-5.032,10.906c-1.789,2.655-6.792,6.673-7.131,9.647
	c-0.52,4.576,4.209,9.772,6.291,13.842c2.469,4.819,3.837,9.302,6.292,13.421c-3.667-0.011-7.6-3.272-10.487-5.451
	c-3.812-0.832-7.175-1.557-10.486-2.939c-3.085-1.282-6.358-4.048-9.226-3.771c-5.869,0.562-10.524,13.551-20.553,11.741
	c2.632-3.662,8.056-8.018,7.551-13.001c-0.089-0.851-2.762-5.974-3.776-7.551c-4.051-6.291-12.974-11.203-12.584-18.458
	c2.891,0.99,5.828,5.102,9.649,2.52c-0.201-3.591-1.843-4.946-1.68-7.97c-4.708-4.411-12.124-5.954-17.197-5.036
	c-17.55,3.179-23.877,38.932-3.354,40.27c0.724,0.952,1.01,2.341,0.839,4.194c-7.523,0.588-12.07,4.148-12.585,11.743
	c-2.574,1.055-4.178,0.893-7.13,0.419c-2.108-6.42-5.512-11.545-13.842-11.741c-0.277-4.909,4.911-4.807,7.13-6.294
	c15.435-10.352-0.375-49.069-23.488-37.331c-3.148,2.444-6.411,4.776-5.453,11.326c3.702,2.465,6.897-1.389,9.228-2.936
	c1.185,10.283-7.204,14.597-12.583,19.713c-4.189,6.366-1.715,13.32,0.839,20.133c-8.612-1.873-12.796-8.178-18.877-12.581
	c-10.534,3.027-18.354,8.77-27.263,13.421c3.335-9.728,9.863-17.285,12.584-28.942c-4.197-5.87-10.072-10.06-10.906-19.293
	c1.774,1.16,3.935,1.935,5.453,3.355c17.647,3.922,22.115-10.762,33.556-13.001c-1.135,3.221-4.689,6.982-2.097,11.322
	c3.151,0.218,3.192-2.678,6.71-2.097c5.38-5.997,20.965-8.24,28.523-2.517c0.596-6.505-5.632-10.121-8.809-14.68
	c-4.451-6.394-7.825-14.113-13.842-19.296c-4.515-0.241-6.069-3.438-7.971-6.293c-2.167,0.941-3.735,3.081-3.775,5.453
	c-0.042,2.62,2.47,3.89,1.678,5.874c-13.053-3.169-15.326-21.753-33.137-18.037c-3.341,0.698-4.374,3.674-7.968,3.355
	c1.34-11.104,9.081-15.807,15.519-21.81C12.271,260.959,6.06,244.86,0.525,229.494c4.8,0.659,7.997,5.301,11.746,8.391
	c3.772,3.109,7.911,6.145,10.486,10.064c3.552,1.201,5.58,3.787,8.389,6.292c2.086,1.862,5.52,6.279,7.968,6.712
	c3.526,0.624,8.574-3.042,12.585-4.193c4.636-1.333,8.788-2.518,14.261-0.84c-1.252,2.384-3.189,4.082-5.034,5.872
	c-5.059,9.331-3.634,18.042,0.42,26.425c1.668,3.45,5.585,5.461,4.193,10.488c-2.003-2.439-6.599-5.208-10.065-2.519
	c1.73,3.531,0.651,6.746,1.677,10.905c0.558,2.264,2.668,3.287,4.194,5.453c1.743,2.471,3.505,5.553,5.453,8.39
	c6.136,8.95,10.917,19.764,18.456,27.264c1.521-4.678-1.407-9.381,0.419-13.004c-3.152-11.011,1.265-26.034-10.905-28.939
	c0.286-1.952,2.294-2.181,4.194-2.519c4.34-4.49,6.602-11.934,6.711-19.295c0.148-10.133,0.095-22.649-2.518-29.359
	c-3.247-8.346-10.509-18.206-19.713-20.553c-3.337-0.852-7.112-0.319-9.646,0.838c2.072,3.069,4.854,6.493,1.678,10.485
	c-8.594,4.366-15.329-7.268-7.97-13.001c0.771-0.604,1.031,0.456,2.096,0c1.106-0.477,2.086-2.356,2.518-2.518
	c12.877-4.796,21.672,6.56,28.522,12.165c4.526-3.443,4.34-11.601,5.452-18.456C88.564,223.275,90.387,222.681,93.223,223.202z
	 M17.304,260.114c8.691,9.485,14.673,21.68,23.908,30.619c-6.572-3.226-15.952-6.561-23.908-4.613
	c-3.097,0.757-9.025,3.702-8.389,7.131c2.806-1.723,9.503-1.634,13.842-1.679c9.141-0.093,15.571,5.203,22.23,7.971
	c1.87-1.486,4.96-1.752,5.873-4.194c-4.419-11.548,0.929-26.895,6.711-35.654c-11.493,3.572-15.031,16.437-12.583,28.523
	C33.3,272.362,24.26,253.857,8.915,241.66C10.043,249.261,16.49,253.571,17.304,260.114z M139.783,278.569
	c-0.986,1.503-1.867,4.943-4.615,5.872c1.946-11.949-3.521-23.544-11.741-23.907c4.435,8.076,9.322,23.309,4.191,34.395
	c1.272,2.083,3.167,3.544,5.454,4.614c7.865-5.598,18.348-9.216,30.619-7.131c1.79,1.158,3.434,2.869,5.872,1.259
	c0.572-2.217-3.234-3.402-4.192-5.454c-4.087-1.546-9.098-2.751-14.262-2.097c-4.499,0.569-7.63,3.406-10.485,3.355
	c8.895-14.452,19.682-27.014,27.682-42.365c0.021-0.72-0.324-1.074-0.839-1.258C157.001,255.523,148.412,267.063,139.783,278.569z
	 M141.879,352.812c-1.926-0.674-2.451-2.024-4.196-1.681c-0.884,0.179-5.788,5.544-5.871,5.876
	c-0.887,3.536,2.789,8.141,3.355,13.001c0.66,5.643-0.389,9.66,0.421,13.843c6.946-4.878,4.498-17.272,1.68-23.488
	c9.536,8.496,17.76,18.313,28.939,25.167c-4.523-12.533-16.282-17.835-23.487-27.683c1.918-0.24,1.49,1.863,2.935,2.097
	c6.729-0.618,18.595,3.44,20.973-5.037C158.827,356.971,148.183,355.017,141.879,352.812z M38.696,351.973
	c-5.751,5.389-16.917,3.276-25.587,2.934c3.038,6.114,12.577,5.06,18.456,6.296c-6.66,7.042-16.051,11.35-19.294,21.81
	c10.812-4.146,16.744-13.178,24.747-20.135c-2.866,6.343-2.985,18.284,2.937,20.554c-1.059-7.749,0.907-18.184,4.193-25.169
	C42.633,355.867,40.744,353.841,38.696,351.973z"/>
<path style="display:none;fill-rule:evenodd;clip-rule:evenodd;" d="M394.617,11.438c-2.02,6.567-6.682,12.92-10.905,19.295
	c-1.351,2.041-3.648,4.799-3.775,6.291c-0.348,4.074,5.683,11.886,7.55,16.359c2.296,5.501,4.845,13.127,5.872,18.037
	c6.379,30.47-5.253,56.713-20.132,75.92c3.637,9.363,8.738,17.269,12.165,26.844c-10.101-3.046-16.208-10.081-25.168-14.262
	c-11.1,4.789-23.566,12.561-37.749,15.101c-26.623,4.762-50.445-5.864-65.855-16.777c-3.906-3.506-7.754-7.069-12.583-9.649
	c1.112,12.111-8.87,25.533-20.973,18.456c-6.559-3.836-6.282-20.139,5.453-15.521c3.139,4.349-0.636,8.814-6.293,6.714
	c2.345,10.364,14.171,5.95,16.778-0.84c1.922-5.001,0.931-12.562-0.838-16.776c-2.664-6.353-7.785-13.33-11.745-20.556
	c-1.845-3.366-3.26-7.247-5.033-10.902c-3.469-7.158-7.448-15.477-3.775-24.75c4.137,12.348,12.339,33.871,26.845,35.652
	c5.468,0.672,9.463-1.639,11.325-5.452c9.551,8.797-1.061,19.3-13.423,13.422c-3.242-1.539-4.637-3.727-7.129-5.031
	c2.643,10.155,16.153,23.74,30.62,27.263c12.415,3.025,31.89-1.679,28.521-19.716c-0.861-4.615-4.477-6.826-7.969-9.646
	c-2.526,0.815-4.004-0.751-6.71,1.259c0.413,3.107,3.849,3.247,3.773,6.712c-0.071,3.341-4.541,6.052-8.388,5.032
	c-6.493-1.72-5.071-13.043,0.419-15.518c13.271-6.558,25.615,5.205,24.328,18.457c-0.782,8.042-9.643,16.501-17.197,18.453
	c-7.434,1.926-15.123-0.419-22.23-2.515c-0.58,2.782,2.964,4.672,5.034,5.871c7.065,4.093,16.745,7.289,25.164,10.07
	c11.852,1.99,28.317,2.109,38.174-0.42c7.528-4.076,16.797-6.41,22.647-12.165c-2.167-4.54-6.718-6.704-10.485-9.646
	c-7.076,3.557-13.865,9.608-23.488,9.226c3.023-7.384,6.168-14.545,3.355-22.648c-2.536-7.305-11.473-13.169-10.486-23.071
	c3.588,0.789,4.233,6.618,9.227,4.614c2.181-1.072,0.245-5.167,0.419-7.97c-11.123-16.221-32.902,0.642-45.718,1.679
	c-21.423,1.73-35.626-11.489-42.783-26.007c-7.783-15.785-0.698-41.813,8.387-54.109c-1.938-10.643-8.317-16.846-10.903-26.843
	c3.83,0.367,7.477,4.063,12.163,6.71c3.558,2.009,8.934,7.005,12.583,7.131c3.593,0.122,6.245-3.773,10.067-5.454
	c1.238-0.544,3.186-0.727,4.613-1.257c11.069-4.121,26.428-7.902,40.268-7.551c15.05,0.383,27.767,4.724,39.426,10.066
	c2.26,1.034,4.875,2.291,6.711,3.356c6.261,3.63,9.003,10.528,17.198,7.13C378.863,18.645,387.93,13.206,394.617,11.438z
	 M260.394,20.246c2.12,2.449,8.829,9.742,12.582,9.647c2.602-0.065,6.241-4.054,9.229-5.452c4.483-2.097,9.033-3.51,13.421-2.517
	c-1.313,4.813-4.494,7.538-4.612,12.584c-0.23,9.71,9.109,16.575,9.228,25.166c-2.659-1.553-6.941-4.979-9.649-1.677
	c0.775,2.444,2.651,3.782,2.1,7.55c2.692,4.219,6.456,9.777,7.13,16.359c0.235,2.304-1.24,6.75,1.678,7.969
	c9.157-7.212,21.18-13.759,22.231-27.684c-4.275-2.935-7.309,3.124-10.067,2.936c-0.818-10.937,8.608-15.124,12.166-23.069
	c2.014-9.098,0.126-14.853-4.194-20.972c11.795-0.312,18.302,8.244,26.422,13.001c4.748-1.685,8.834-4.031,11.746-7.55
	C340.206,3.123,285.542,0.421,260.394,20.246z M242.777,18.569c0.047,0.114-0.058,0.311,0,0.42
	c7.548,14.139,20.999,25.085,29.361,36.911c-7.381-2.719-18.511-1.257-21.392,4.614c7.9-0.604,14.444-0.84,21.811,0.838
	c1.921,0.439,3.332,1.917,5.033,1.679c1.879-0.265,6.265-4.354,6.711-6.292c0.459-1.987-0.722-4.793-0.84-7.131
	c-0.371-7.448,1.874-14.686,3.358-20.552c-7.711,3.884-9.361,14.162-9.23,24.748c-10.169-13.181-20.341-26.359-33.976-36.074
	c-0.092-0.326-0.352-0.486-0.839-0.418C242.613,17.909,242.274,18.017,242.777,18.569z M381.197,22.345
	c-0.566,0.087-0.862,0.601-1.261,0.837c-10.753,6.417-22.84,17.463-31.879,26.005c-3.39,3.206-5.777,6.967-9.227,9.229
	c2.605-8.766,3.779-20.782-3.775-26.006c-1.126,9.542,0.837,21.779-3.774,29.36c1.327,1.418,2.584,5.064,5.451,5.454
	c1.769,0.239,4.082-1.463,5.875-1.678c11.648-1.393,19.249,2.563,26.844,5.033c-3.429-8.736-14.149-10.179-25.169-11.324
	c14.013-10.877,28.093-21.682,37.754-36.911C381.754,22.345,381.476,22.345,381.197,22.345z M251.585,46.252
	c-0.101-3.859-5.673-8.928-8.391-10.487c-4.027,2.605-6.336,8.44-7.967,13.842c-11.965,39.617,32.886,72.05,59.562,42.363
	c2.796-12.393-1.42-23.663-13.005-24.326c-3.32,3.594,0.909,6.814,2.099,9.646c-15.296,3.252-23.691-20.761-41.107-10.486
	C238.308,58.31,251.758,52.874,251.585,46.252z M380.355,126.368c2.947-4.922,5.306-12.315,6.712-18.037
	c5.851-23.823,0.102-48.5-12.582-62.917c-4.291,2-6.318,6.266-8.39,10.486c4.375,7.097,10.623,14.535,10.064,25.167
	c-4.453-2.263-6.945-5.571-11.742-6.711c-12.69-3.013-20.142,10.421-31.458,9.228c-0.334-2.823,6.198-6.062,2.937-10.486
	c-3.975,1.268-5.24,2.649-10.907,2.097c-6.364,6.637-14.277,11.725-19.714,19.294c6.094,2.854,14.349,3.546,18.456,8.387
	c4.115-0.71,4.88,3.046,8.39,1.68c1.651-3.833-3.308-6.288-2.936-8.81c12.363,0.949,16.187,14.23,28.52,15.521
	c6.548,0.687,10.377-2.608,15.521-5.035c0.777,6.916-3.076,13.005-5.872,17.617c-1.317,2.175-4.011,4.353-4.195,5.875
	c-0.451,3.679,3.942,7.585,6.292,10.486C373.949,137.441,377.185,131.669,380.355,126.368z M332.12,111.686
	c-1.089,1.707-2.977,2.615-3.776,4.615c4.584,9.868,1,23.543-1.679,31.459c8.541-2.338,11.066-12.852,9.649-22.652
	c5.824,5.779,10.927,12.282,15.938,18.876c3.267,1.765,6.285,3.779,7.551,7.548c6.169,1.242,6.69,8.131,13.003,9.23
	c-7.001-12.012-15.409-22.622-25.588-31.459c-2.096-3.659-6.8-6.868-7.967-10.066c7.844,4.062,19.883,4.656,24.327-2.52
	C354.314,117.933,341.848,116.073,332.12,111.686z"/>
</svg>
