<?xml version="1.0" encoding="iso-8859-1"?>
<!-- Generator: Adobe Illustrator 30.3.0, SVG Export Plug-In . SVG Version: 9.03 Build 0)  -->
<svg version="1.1" id="Layer_1" xmlns="http://www.w3.org/2000/svg" xmlns:xlink="http://www.w3.org/1999/xlink" x="0px" y="0px"
	 viewBox="0 0 177 177" style="enable-background:new 0 0 177 177;" xml:space="preserve">
<radialGradient id="SVGID_1_" cx="-134.509" cy="197.0428" r="619.0404" gradientUnits="userSpaceOnUse">
	<stop  offset="0" style="stop-color:#FFFFFF"/>
	<stop  offset="0.3288" style="stop-color:#FCFCFC"/>
	<stop  offset="0.4654" style="stop-color:#F4F5F5"/>
	<stop  offset="0.5665" style="stop-color:#EAEBEB"/>
	<stop  offset="0.65" style="stop-color:#DBDCDE"/>
	<stop  offset="0.7227" style="stop-color:#C8CACC"/>
	<stop  offset="0.7879" style="stop-color:#B0B3B5"/>
	<stop  offset="0.8475" style="stop-color:#96989B"/>
	<stop  offset="0.9027" style="stop-color:#797A7D"/>
	<stop  offset="0.9522" style="stop-color:#565759"/>
	<stop  offset="0.9987" style="stop-color:#050506"/>
	<stop  offset="1" style="stop-color:#000000"/>
</radialGradient>
<rect x="-450.509" y="-14.957" style="display:none;fill-rule:evenodd;clip-rule:evenodd;fill:url(#SVGID_1_);" width="648" height="432"/>
<g>
	<path style="display:none;fill-rule:evenodd;clip-rule:evenodd;" d="M-265.149,7.952c-3.492,2.851-7.724,4.055-10.906,7.13
		c-3.54,3.424-5.994,7.957-8.39,12.584c10.302,13.35,21.934,32.211,22.232,54.109c0.067,4.864-0.199,10.622-0.841,15.937
		c-2.887,23.949-13.766,42.385-28.519,54.95c-1.39,1.181-3.263,2.136-5.035,2.516c0.12,2.076-1.174,2.737-1.679,4.195
		c1.173,7.237,10.953,11.183,18.456,8.387c3.267-1.216,4.411-4.182,6.711-5.871c-4.229,0.006-7.997-0.17-8.807-3.775
		c-2.246-10.005,12.398-10.371,13.842-1.676c2.065,12.449-13.978,19.31-26.427,15.937c-5.407-1.464-7.823-5.048-12.162-7.551
		c-21.85,9.759-52.788,13.19-77.599,4.195c-6.337-2.297-11.811-6.414-17.617-8.391c-6.522,5.681-19.881,11.743-29.361,5.875
		c-2.168-1.341-5.301-4.349-6.291-5.875c-4.031-6.199-2.492-18.272,8.389-15.097c4.707,3.645,2.727,11.599-3.776,11.742
		c1.535,5.584,6.893,9.097,13.842,7.131c3.896-1.103,8.766-7.111,8.808-9.227c0.066-3.287-6.096-6.779-8.808-9.646
		c-8.317-8.8-15.919-22.389-19.295-35.653c-5.668-22.271-1.324-45.311,5.453-61.24c2.32-5.454,6.084-9.887,8.389-15.52
		c2.248-3.799,7.737-6.496,7.971-10.906c0.272-5.192-6.093-8.454-7.551-13.423c-2.664-2.089-5.881-3.625-7.968-6.292
		c11.703-1.503,22.891,5.483,31.877,9.228c14.224-8.512,28.508-11.628,45.72-13.004c2.016-0.16,4.272-0.142,6.293,0
		c17.057,1.206,30.834,5.216,43.201,12.584c1.929,1.146,4.308,3.99,5.875,4.195c2.044,0.265,6.253-1.939,8.806-2.937
		c2.823-1.103,5.885-2.278,8.39-2.935C-275.659,7.984-270.426,5.289-265.149,7.952z M-377.98,8.372
		c-3.17,1.109-14.393,4.459-14.68,7.13c-0.159,1.472,4.151,5.46,5.454,6.711c8.03,7.714,16.012,15.08,19.712,24.328
		c6.015,6.571,8.438,16.729,13.003,24.748c2.907-17.921-2.157-37.124-10.486-47.818c6.414-2.956,12.854-9.878,10.486-18.875
		C-362.976,4.115-369.55,5.419-377.98,8.372z M-346.103,5.854c-1.512,9.106,3.919,14.787,10.067,17.617
		c-8.148,11.106-14.057,28.589-12.582,46.559c10.486-20.971,25.7-37.214,43.201-51.171C-314.89,11.451-333.657,4.972-346.103,5.854z
		 M-408.6,20.116c6.359,6.911,13.736,15.441,20.972,20.133c2.319,1.504,5.822,1.497,6.711,4.615
		c-12.604-2.729-26.393-0.908-28.523,10.906c3.91-1.405,7.046-3.581,10.486-5.453c7.253-0.496,14.123-1.957,20.134-0.42
		c4.391,1.121,7.184,4.87,11.324,5.033c-2.251-7.06-8.255-12.74-13.842-18.037c-9.938-9.421-20.957-19.863-34.815-24.746
		C-414.916,15.847-411.301,17.18-408.6,20.116z M-304.158,27.246c-3.206,2.192-6.854,4.275-10.067,6.711
		c-6.27,4.753-16.589,12.692-17.617,20.135c-0.413-1.797,0.812-0.306,1.26-0.42c9.862-2.536,21.491-3.072,30.199,1.678
		c2.905,1.584,4.581,4.497,7.971,3.356c-2.857-10.538-16.176-15.031-28.523-12.164c4.652-4.765,11.347-5.844,16.358-9.648
		c5.294-4.016,8.53-10.221,14.682-13.001c0.137-3.639,3.867-3.685,4.615-6.711C-294.043,18.155-298.259,23.216-304.158,27.246z
		 M-412.795,28.504c-2.934,2.282-4.996,6.385-7.969,10.907c-6.49,9.87-12.704,23.943-13.842,37.331
		c-1.674,19.697,2.982,36.482,9.646,50.333c5.834,6.889,9.162,16.286,17.617,20.553c5.591-17.232-13.157-24.458-13.422-41.945
		c-0.319-21.152,25.82-31.477,45.3-22.65c9.458,4.286,14.023,13.417,20.134,20.134c-1.025-20.366-0.252-46.5-22.231-45.719
		c-1.497,2.809-3.801,4.568-3.355,7.967c0.44,3.358,3.765,3.668,5.033,6.292c-11.727,2.309-18.325-17.75-31.458-11.744
		c-3.513,1.606-5.011,6.491-8.388,7.551c-2.231-13.112,4.473-22.738,12.164-28.523C-406.475,35.33-408.097,30.379-412.795,28.504z
		 M-293.671,147.628c7.605-11.658,20.894-25.349,23.488-43.621c0.656-4.598,2.069-9.963,2.099-15.101
		c0.12-21.95-8.069-41.581-19.296-54.529c-0.28,0-0.559,0-0.836,0c-2.608,2.308-5.652,5.669-5.454,8.808
		c0.123,1.958,2.656,3.841,3.775,5.872c1.686,3.063,2.789,6.784,3.355,10.486c0.529,3.464,2.417,8.514-0.84,11.325
		c-2.086-1.408-2.515-4.473-4.191-6.291c-16.009-9.339-22.273,13.814-36.494,8.389c2.291-2.174,5.055-2.539,5.451-5.873
		c0.546-4.551-3.659-7.991-7.13-7.968c-16.395,0.099-22.161,31.18-20.553,44.462c5.301-8.746,13.832-18.885,26.008-20.974
		c14.398-2.47,27.915,4.076,33.555,11.324c3.901,5.014,6.421,12.244,4.614,20.973c-2.84,13.722-16.101,20.276-15.101,37.333
		C-298.075,151.331-296.727,148.628-293.671,147.628z M-409.439,91.002c-1.901,3.14-5.532,4.396-7.129,8.809
		c-2.511,6.93,0.599,17.488,6.291,19.713c2.71,1.058,9.816,1.127,10.067-3.355c-6.793-0.918-6.709-10.855,0.419-11.326
		c0.886,1.492,3.496,1.26,4.613,2.519c5.835,9.06-3.079,17.006-13.421,16.358c5.033,8.249,11.152,15.412,10.066,29.778
		c6.021,5.025,12.633,9.459,23.07,10.066c1.205-2.737,4.494-1.362,7.55-2.096c3.516-0.843,5.154-3.765,5.871-7.551
		c-7.474-3.895-17.579-6.24-21.391-14.681c-5.49-12.152,2.736-24.489,11.324-29.78c0.951,8.518,6.54,15.078,15.1,13.422
		c3.137-14.817-4.453-29.219-17.615-27.263c-4.98,0.74-6.646,4.717-10.486,7.55C-386.976,92.985-397.844,87.571-409.439,91.002z
		 M-314.225,120.365c-0.669-1.707-1.023-5.182-0.419-6.711c1.789-4.526,11.377-7.285,13.002-1.26
		c1.993,7.387-5.776,4.182-6.291,7.551c-0.713,4.676,10.219,2.212,12.585,0.839c4.547-2.645,6.233-9.083,5.872-13.841
		c-1.021-13.47-17.378-17.296-25.587-9.23c-2.147,2.113-1.857,4.161-5.031,6.294c-11.438-17.058-36.154,0.161-28.943,19.293
		c8.8,0.123,12.899-5.82,15.938-12.582c12.575,7.216,16.166,28.404,2.939,36.91c-1.549,0.996-4.297,2.273-7.131,3.355
		c-3.034,1.158-8.273,1.106-8.81,3.776c-0.355,1.771,3.25,5.779,4.195,6.291c2.028,1.099,5.588,0.355,7.131,1.26
		c1.478,0.863,0.962,3.113,2.935,3.355c3.812-0.905,8.131-1.168,11.746-2.516c2.833-1.058,8.943-4.031,10.066-6.294
		c0.772-1.554,0.171-3.431,0.42-5.032c1.69-10.882,10.353-16.221,13.002-26.007C-304.072,128.034-312.139,125.682-314.225,120.365z
		 M-372.946,139.238c0.876-4.871,0.109-8.817,0.418-14.258C-380.631,116.104-384.357,140.634-372.946,139.238z M-327.646,127.915
		c-0.294-1.065-1.925-4.653-3.776-4.615c-4.911,0.096-2.685,10.609-2.515,15.521C-329.24,138.548-326.561,131.847-327.646,127.915z
		 M-370.011,127.495c-1.535,2.997-0.874,9.756-0.419,13.422c1.393,0.983,2.725,2.028,5.453,1.676
		c1.801-3.611,1.135-8.237,0.42-13.001C-366.022,128.54-367.37,127.373-370.011,127.495z M-342.748,143.013
		c1.95,0.593,4.66-0.665,6.291-1.676c0.321-3.567,1.247-10.152-0.419-13.002C-344.598,128.069-344.863,136.749-342.748,143.013z
		 M-361.202,130.85c-1.101,3.841-0.903,8.708,0,12.583c1.508,0.73,3.504,0.973,5.873,0.839c1.137-3.308,0.495-8.199,0-12.166
		C-356.529,130.932-358.664,130.69-361.202,130.85z M-352.394,132.947c0.181,4.536-0.75,7.929,0.84,11.325
		c1.597,0.543,4.171,0.15,5.872-1.259c0.147-2.864,0.444-8.589-0.84-11.323C-348.833,131.947-350.622,131.51-352.394,132.947z"/>
</g>
<g>
	<path style="display:none;fill-rule:evenodd;clip-rule:evenodd;" d="M37.876,234.845c2.229-4.583,3.813-11.931,9.229-13.843
		c10.41-3.678,15.107,7.498,9.229,13.004c-2.511,0.602-4.553-0.05-6.295-1.258c-1.078-2.816,0.199-5.245,1.681-6.712
		c-8.043-3.151-10.206,8.692-10.487,14.681c0.827,1.413,3.42,1.057,4.615,2.099c0.116,1.419,0.662,2.408,0.418,4.192
		c-1.408,1.335-1.947,1.054-4.615,1.26c-1.53,9.757-1.331,21.408-0.418,31.038c3.646-5.566,3.701-15.425,8.807-20.552
		c5.121-11.517,12.856-20.421,22.652-27.266c2.69-2.429,5.68-6.51,10.062-5.871c0.93,3.716-2.737,3.857-4.191,6.71
		c-3.809,7.495,0.369,19.644-6.295,26.006c1.278,4.008,5.845,4.391,7.976,7.552c3.221,4.784,2.859,10.739,3.351,18.454
		c-2.246-0.684-2.546-3.325-4.192-4.613c-17.332-11.27-42.727,0.891-38.594,24.747c4.432-7.176,10.74-12.476,19.718-15.101
		c4.807,1.656,7.79,0.8,11.741,2.938c10.043,5.419,11.716,16.855,11.75,27.684c0.033,10.503-2.164,19.456-5.871,26.844
		c-5.455,10.857-13.128,19.156-14.261,29.781c-0.759,7.087,2.019,10.955,5.87,13.422c5.626,0.704,10.234-1.747,9.229-6.291
		c-1.623-0.857-2.854,0.15-5.036-0.419c-4.268-3.281-1.518-10.63,5.453-8.81c8.786,6.772,3.455,21.682-8.808,20.132
		c-6.682-0.843-10.301-7.147-10.909-14.678c-1.699-21.266,16.774-30.964,18.877-49.075c-5.406,5.283-10.39,12.878-19.292,13.422
		c-6.356,0.388-11.115-3.708-11.744-9.647c-1.296-12.175,6.958-20.877,15.519-24.749c-0.26,4.637-3.987,5.805-3.775,10.907
		c2.587,12.592,19.927,6.698,20.132-6.71c0.158-10.352-10.315-22.075-23.907-17.199c-15.081,5.408-15.914,26.193-14.686,45.718
		c0.567,8.957,2.842,13.678,10.487,17.197c-1.379,2.55-4.048,2.399-5.872,4.195c-3.022,2.99-3.876,8.862-3.773,13.843
		c0.089,4.119,1.528,7.734,5.455,9.649c1.863-0.113,3.522-2.138,5.454-0.84c-3.135,12.603-22.878,13.025-25.588-0.419
		c3.365,0.105,7.284,0.163,8.807-2.936c2.355-4.792,1.16-15.982-3.774-19.297c-2.062-1.386-4.076-0.252-5.451-2.517
		c1.355-3.256,6.215-5.307,7.549-9.226c2.407-7.075,1.212-17.402,0.837-25.167c-0.703-14.751-4.914-28.053-18.033-30.201
		c-13.65-2.236-22.611,15.199-14.681,28.101c2.023,1.893,4.928,3.438,7.967,2.94c7.563-1.249,6.261-12.251,4.198-17.619
		c9.183,1.027,19.675,26.508,8.808,33.556c-7.981,5.179-14.952-3.184-20.554-6.71c-0.266,4.829,3.574,8.372,5.871,12.161
		c4.069,6.716,7.896,12.906,10.907,21.393c0.375,4.119,0.733,11.822-0.421,16.78c-2.297,0.741-2.765,4.205-5.034,5.871
		c-5.93,4.355-17.088,0.799-18.453-5.035c0.316-6.486,0.143-13.661,6.291-13.841c3.15-0.094,5.819,2.419,5.874,7.13
		c-0.518,0.185-0.863,0.536-0.839,1.26c-1.769,1.048-4.527,1.048-6.295,0c-2.929,11.592,13.743,9.625,15.521,0.42
		c0.668-3.465-0.469-10.588-1.26-13.006c-3.546-10.82-15.222-21.668-19.293-35.229c-2.458-8.19-2.097-26.09,1.679-33.14
		c4.844-9.053,18.849-15.255,29.779-6.29c3.482,2.854,2.86,5.613,7.967,9.646c5.429-18.243-14.739-36.931-31.874-28.522
		c-3.804,1.868-4.414,5.614-8.808,7.551c-1.29-13.648,3.997-21.234,12.998-25.585c0.718-2.764-2.396-4.395-2.935-6.712
		c-1.693-7.257-1.679-13.921-5.032-20.134c-1.276-2.358-3.833-3.756-4.194-6.291c1.662-0.173,6.079,1.748,7.971,2.936
		c3.679,2.312,6.873,6.579,10.485,10.066c9.93,9.592,19.398,22.634,22.229,37.751c2.949-2.752,1.018-7.38,0.839-11.325
		c-0.231-5.223,0.739-10.922-0.839-15.521c-1.996-2.355-5.468-1.501-5.45-4.612c0.013-2.983,3.561-2.247,5.034-5.033
		c-0.267-7.507-4.349-18.447-11.325-13.843c0.678,3.224,2.559,1.643,2.516,4.614c-0.1,6.979-12.838,2.814-9.227-5.873
		c2.086-5.019,12.199-5.564,16.776-1.678C36.222,226.226,36.932,231.787,37.876,234.845z M63.461,247.008
		c-2.191,2.611-3.809,6.346-5.872,9.647c-3.829,6.148-9.141,11.155-9.646,18.875c7.162-5.166,19.887-10.069,29.362-2.935
		c-1.064-8.027-12.747-10.336-20.132-7.131c5.714-7.287,12.057-13.949,14.261-24.748c-0.09-0.471-0.471-0.653-0.841-0.838
		C68.889,242.905,65.617,244.438,63.461,247.008z M22.356,265.045c-7.93-3.062-17.057,0.708-18.453,7.13
		c7.579-7.606,21.171-0.662,26.843,2.936c1.441-2.689-2.017-3.757-1.26-7.13c-5.825-9.829-11.382-19.934-20.551-26.424
		C9.638,251.489,17.904,257.469,22.356,265.045z"/>
</g>
<g>
	<path style="display:none;fill-rule:evenodd;clip-rule:evenodd;" d="M161.46,250.673c-16.62-3.126-6.639,24.798-15.521,30.62
		c-0.184-2.067-0.03-6.932-2.936-7.549c-2.724,0.913-2.648,4.619-5.031,5.871c0.844,10.261-7.346,18.569-12.586,26.425
		c3.711,0.969,8.442-1.371,11.746-2.937c20.897-9.901,41.648-34.616,37.75-63.755c-0.58-4.34-3.249-10.456-8.81-9.647
		c-3.331,0.485-3.112,4.546-6.29,5.453c-3.186-9.64,10.991-13.544,18.036-10.066c11.845,5.85,11.241,27.729,5.451,40.268
		c-1.611,3.488-4.387,5.983-4.192,7.968c0.396,4.11,12.679,10.401,7.549,17.617c-9.937-12.477-21.554,0.495-30.619,6.292
		c-5.857,3.746-12.316,5.693-16.359,9.228c1.845,2.559,4.767,0.949,7.132,0.84c11.31-0.527,20.031,0.218,29.359-3.357
		c5.694-2.181,9.545-1.916,14.261,2.098c0.148,3.082-0.047,5.825-0.836,7.971c-3.304,2.271-8.967,5.782-12.165,1.257
		c-6.234-1.298-14.17-2.969-22.648-3.355c-5.69-0.259-12.63-1.129-16.359,1.679c4.733,2.94,11.223,4.884,17.195,9.647
		c6.552,5.219,15.419,16.592,25.588,11.324c2.233-1.156,2.301-2.918,4.615-4.614c4.495,6.052-2.171,13.917-5.875,17.197
		c8.917,11.179,12.733,36.767-0.419,46.56c-5.967,4.445-21.354,4.679-20.553-6.712c3.605,0.684,6.075,7.077,11.745,3.355
		c3.015-1.979,4.64-6.989,5.034-11.746c1.503-18.151-9.144-38.615-18.876-47.395c-8.278-7.465-17.988-15.534-30.199-17.616
		c4.712,7.752,12.051,15.05,10.903,27.264c1.631,2.145,3.617,3.935,5.454,5.871c1.649-1.147,2.54-3.053,2.096-6.292
		c8.496,2.837,3.633,16.348,6.712,23.908c2.081,5.109,5.43,5.329,9.229,8.391c-1.777,4.772-8.871,2.87-13.005,5.035
		c-2.52,1.317-2.376,3.544-4.611,5.031c-0.024,1.25,1.23,2.13,0.42,2.934c-2.711,2.883-2.689,12.747-6.712,13.006
		c-3.341,0.212-4.451-6.692-5.871-9.649c-1.911-3.966-4.117-6.633-5.875-9.227c-7.288-1.611-13.793-1.494-18.035-5.871
		c4.242-3.011,8.978-2.451,11.745-6.294c5.865-8.142,0.123-22.815,7.55-27.684c0.623,2.734,0.908,5.806,3.352,6.711
		c1.264-1.391,3.807-3.39,4.2-5.871c1.04-6.627-7.701-23.279-13.846-26.005c-1.27-0.566-0.481-1.135-1.256-1.259
		c-5.636-0.885-8.049,1.498-9.647,5.451c-2.341-1.992-4.259-4.409-7.55-5.451c-0.245-1.993-0.608-3.866-0.42-6.291
		c2.182-2.012,5.179-3.211,6.291-6.293c2.418,1.635,3.218,4.461,5.871,5.033c10.685,2.308,14.917-13.372,19.297-18.875
		c1.156-5.161,0.037-9.648-2.517-13.842c-3.591-0.375-3.095,3.339-5.035,4.614c-5.731-0.372-3.546-6.667-4.194-10.486
		c-1.421-8.353-8.172-12.227-14.263-15.939c2.991-3.262,7.334-5.849,11.746-7.129c2.189-0.635,4.388,0.039,6.292-1.259
		c1.652-1.127,1.758-3.547,2.936-6.292c2.104-4.89,5.535-11.083,7.132-14.682c6.562,2.354,8.38,16.43,12.584,20.554
		C151.731,246.74,159.194,244.361,161.46,250.673z M133.773,260.74c-3.893-5.057-8.554-9.339-17.613-9.229
		c6.055,5.967,13.73,10.319,16.777,19.295c1.32,0.275,4.489,0.08,6.291-0.418c0.784-3.881,3.341-7.611,5.031-11.746
		c2.806-3.093,8.148-5.803,8.809-9.647c-7.799,0.31-10.268,5.952-14.68,9.647c0.653-7.82,0.398-19.266-2.097-26.425
		c-0.42,0-0.84,0-1.259,0C132.79,240.303,134.641,251.365,133.773,260.74z M132.517,350.5c-2.579,6.23-4.901,12.72-8.39,18.038
		c-2.198,1.297-4.137,2.849-5.031,5.454c8.513-0.168,12.377-8.585,15.517-15.522c0.554,5.288-1.078,12.423-0.839,19.297
		c0.171,4.826,0.355,11.121,3.358,13.841c3.769-8.539,2.536-22.753,2.097-32.297c1.932,7.017,5.407,12.484,13.422,13.421
		c-0.571-3.611-4.621-5.554-6.712-9.227c-2.109-3.714-2.256-8.391-4.191-12.584C138.28,350.384,134.994,350.019,132.517,350.5z"/>
</g>
<path style="display:none;fill-rule:evenodd;clip-rule:evenodd;" d="M-44.05,7.391c-3.799,9.902-10.482,16.92-14.262,26.845
	c3.543,6.801,7.803,12.887,11.327,19.714c7.639,18.458,9.539,45.511,1.674,66.271c-1.579,4.174-4.088,9.947-7.13,14.682
	c-2.577,4.014-8.688,9.701-8.808,13.001c-0.136,3.68,4.831,9.121,7.132,13.425c1.055,1.973,1.412,3.902,2.097,5.032
	c1.279,2.12,4.279,3.778,3.775,6.291c-4.176-1.441-8.101-4.202-12.583-6.711c-3.372-1.885-9.578-6.015-13.006-5.871
	c-2.427,0.102-3.058,2.25-5.45,3.775c-8.233,5.25-23.44,10.579-34.396,12.163c-22.067,3.192-42.152-1.293-59.98-10.903
	c-3.758-2.027-9.915-8.158-13.842-8.391c-4.56-0.273-10.29,4.626-14.261,6.711c-5.255,2.758-9.655,4.97-14.261,6.291
	c4.221-10.318,11.363-17.719,15.52-28.103c-1.501-2.973-3.26-5.686-5.454-7.967c-3.437-9.073-9.168-19.681-10.486-31.458
	c-2.655-23.757,4.07-47.386,12.167-62.919c1.821-3.471,6.983-5.728,7.131-9.645c0.091-2.527-5.223-10.227-6.713-13.004
	c-2.597-4.836-5.718-9.102-6.292-13.422c3.832,1.691,8.092,3.844,13.004,6.711c3.319,1.939,8.916,7.093,12.582,7.13
	c2.539,0.026,4.516-2.924,6.71-4.195c25.275-14.63,57.008-17.158,83.47-6.291c3.376,1.386,8.117,3.914,12.165,6.291
	c3.062,1.799,8.77,6.956,11.326,7.131c2.662,0.182,4.246-1.953,6.29-2.936c3.501-1.683,6.979-2.935,10.487-5.033
	C-50.635,9.922-47.091,7.506-44.05,7.391z M-139.265,6.972c-9.246,1.181-18.458,3.966-25.586,7.549
	c-3.214,1.617-10.046,4.738-10.067,7.551c-0.029,4.146,7.627,6.692,9.648,10.066c5.352-6.81,15.896-14.673,24.747-13.842
	c-2.439,5.001-5.673,7.283-6.292,13.422c-1.599,15.882,13.812,20.421,13.423,32.718c-2.936-2.163-6.916-6.583-12.165-3.775
	c1.656,3.309,2.497,4.837,2.098,10.066c3.935,6.171,9.065,10.745,19.294,9.648c2.912-2.402,5.578-5.047,8.808-7.131
	c0.232-4.522,2.287-7.222,3.355-10.905c-3.543-2.966-7.362,0.892-10.066,2.517c-0.289-11.749,14.043-16.552,14.263-29.362
	c0.107-6.414-3.221-11.399-5.033-15.939c9.31,0.921,15.951,8.078,21.39,14.262c4.305-3.107,9.984-4.837,12.166-10.066
	C-90.951,13.712-113.132,3.632-139.265,6.972z M-97.32,54.37c4.629-9.8-0.219-19.709-7.132-23.91
	c3.971,10.353,0.5,21.239-1.675,31.039c2.636,7.199,8.4,2.787,15.098,2.098c8.332-0.857,15.657,1.128,22.231,2.098
	c-3.505-7.818-15.23-10.073-25.168-6.712c14.48-11.947,28.885-23.964,39.01-40.267C-71.398,27.999-84.612,42.749-97.32,54.37z
	 M-194.212,21.232c8.002,12.693,18.347,23.038,28.942,33.138c-9.75-0.964-20.213,0.363-23.49,8.807
	c5.44-1.334,14.8-3.759,21.391-2.936c2.943,2.652,8.439,2.749,11.746,5.034c5.865-3.813,0.622-10.089,0.839-17.198
	c0.27-8.801,4.068-15.263,4.615-22.229c-9.463,2.869-10.007,15.353-10.907,25.585c-9.883-11.9-20.44-24.019-33.136-31.878
	C-194.699,20.176-194.699,20.612-194.212,21.232z M-193.791,59.403c1.69-2.229,10.276-7.721,10.486-10.067
	c0.219-2.479-8.007-10.028-9.648-11.325c-20.905,19.706-23.767,73.205-3.356,95.635c2.849-3.724,6.802-6.341,8.809-10.906
	c-6.203-5.123-11.379-13.51-11.326-23.491c4.381,0.996,8.27,4.123,13.842,4.615c12.648,1.12,21.854-8.984,31.879-10.486
	c-0.999,2.915-3.219,4.611-3.355,8.39c2.802-0.952,5.973,0.308,8.808-0.419c4.6-1.181,7.199-6.963,10.487-9.646
	c-0.964-2.832-0.289-4.726-0.42-8.39c-4.393-5.673-9.124-11.01-17.615-12.584c-4.661,3.546-0.371,10.304,1.257,13.842
	c-6.374-0.423-10.132-6.538-14.681-10.066c-4.73-3.669-10.564-6.953-16.778-6.291c-5.557,0.59-9.112,4.486-13.423,5.033
	C-197.409,68.203-197.356,64.098-193.791,59.403z M-69.638,52.69c-0.064,1.39,1.99,5.191,2.936,6.713
	c3.199,5.125,8.794,10.148,7.131,17.197c-6.246-3.33-14.8-6.943-23.908-3.775c-6.639,4.565-14.666,12.148-24.326,10.905
	c3.802-2.054,9.774-6.302,5.87-12.163c-2.239,3.14-5.837,1.943-9.226,2.935c-4.837,1.415-7.221,6.965-10.487,9.646
	c0.119,3.196,0.017,6.17-0.84,8.389c4.421,5.94,9.612,12.568,18.036,12.165c1.939-4.929-2.119-7.345-3.354-10.486
	c12.802,0.573,19.217,13.582,31.878,14.262c6.819,0.365,11.247-3.342,16.776-5.875c-0.424,5.547-2.334,10.542-6.71,15.522
	c-2.52,2.867-9.524,5.291-9.647,8.807c-0.086,2.485,3.534,5.076,5.032,7.13c1.99,2.724,2.652,5.697,5.873,6.295
	c8.62-9.24,16.062-23.693,18.038-39.849c2.706-22.144-3.725-44.766-15.521-58.304c-0.023-0.254-0.061-0.495-0.42-0.418
	C-63.858,45.783-69.445,48.728-69.638,52.69z M-126.263,95.893c-12.36-3.411-17.229,9.554-20.971,18.457
	c5.289,3.287,9.884-2.745,12.584-3.355c-0.837,10.534-10.823,16.016-13.424,25.587c-2.814,10.367,2.701,14.671,5.034,21.808
	c-12.021-1.12-17.834-8.448-24.747-14.678c-3.642,2.929-8.231,4.912-10.905,8.807c10.227,11.166,27.278,15.504,46.559,17.617
	c10.551-0.789,22.415-1.096,34.393-5.451c2.718-0.99,14.021-5.95,13.843-9.23c-0.116-2.178-9.07-8.073-10.486-7.967
	c-1.526,0.109-2.409,1.919-3.775,2.936c-3.769,2.806-10.644,6.683-15.519,7.966c-1.627,0.431-4.379,1.342-5.454-0.416
	c3.35-5.359,7.213-9.087,6.712-16.361c-0.84-12.234-12.757-18.32-13.423-30.199c2.957,1.891,5.845,5.775,10.486,4.615
	C-116.033,107.837-118.935,97.918-126.263,95.893z M-190.019,108.479c3.139,8.141,12.046,12.258,23.071,10.066
	c-11.574,12.053-25.276,21.98-33.556,37.33c5.088-1.762,7.852-5.372,11.325-8.387c3.534-3.065,8.06-5.854,11.745-9.23
	c5.594-5.12,10.984-10.346,15.101-15.937c-1.873,10.391-0.087,24.659,8.806,28.103c0.758-2.54-1.496-4.397-2.096-7.131
	c-2.176-9.926-1.165-22.211,2.517-30.203c-1.728-0.789-2.386-2.645-4.194-3.355C-167.333,115.595-181.54,112.527-190.019,108.479z
	 M-92.285,114.77c-4.896-0.734-9.05-3.464-12.167-2.516c-5.365,1.629-2.614,6.759-1.675,10.486
	c2.727,10.832-1.652,19.982-2.518,28.103c9.209-2.837,11.848-14.487,9.229-25.588c11.392,12.377,21.963,25.574,37.329,33.975
	c-5.608-9.056-11.793-17.566-18.875-25.168c-4.644-4.984-10.609-8.697-14.679-14.258c10.365,2.509,20.716,0.823,26.003-5.874
	C-76.017,113.609-84.783,115.896-92.285,114.77z"/>
<g>
	<path style="display:none;fill-rule:evenodd;clip-rule:evenodd;" d="M-272.139,382.561c-1.824-0.815-4.458,2.283-6.711,0
		c-2.614-4.882,0.898-9.146,5.871-8.386c4.639,0.702,7.199,8.365,5.874,13.001c-1.218,4.246-6.834,8.343-12.585,7.971
		c-8.398-0.547-11.588-9.104-11.746-19.713c-5.693,2.751-8.93,7.789-14.678,11.322c-26.601,16.35-72.337,15.746-98.571-2.517
		c-3.079-2.143-4.859-5.624-8.808-6.709c0.771,10.201-0.447,19.619-11.326,20.132c-3.963,0.188-9.826-2.642-11.325-5.452
		c-3.027-5.674-1.812-15.776,4.194-16.361c7.903-0.767,9.424,11.446-0.419,10.071c-0.906,10.138,14.001,7.795,15.1-0.84
		c0.981-7.712-6.348-14.108-9.649-20.554c-1.809-3.535-1.512-6.542-4.193-8.39c-5.335-13.268-10.884-27.276-11.744-44.041
		c-0.643-12.521,2.261-27.31,6.71-37.751c1.331-3.123,3.88-4.785,3.776-7.969c-0.111-3.355-4.042-6.029-5.872-10.487
		c-4.396-10.699-2.217-30.526,13.421-29.361c2.745,0.205,7.831,2.358,8.388,5.453c0.789,4.364-3.603,8.341-7.548,6.712
		c-3.016-1.245-1.649-3.875-3.356-6.712c-12.524,1.087-8.487,22.728-0.419,25.586c4.571-3.119,7.593-7.786,10.906-12.164
		c18.53-17.915,51.798-30.055,85.147-21.391c16.855,4.378,28.554,11.583,39.849,22.23c2.075,1.957,8.018,9.166,10.486,9.229
		c4.222,0.105,7.681-8.207,7.967-12.585c0.191-2.876-1.044-9.185-3.775-9.228c-3.57-0.057-2.082,5.439-7.967,4.614
		c-7.373-1.034-5.42-11.159,0.836-12.583c11.401-2.593,16.996,11.924,16.361,22.229c-0.185,3.011-1.611,7.37-2.936,10.067
		c-1.259,2.566-4.018,4.835-4.195,7.131c-0.188,2.424,2.174,5.098,2.936,7.13c4.372,11.704,7.841,24.917,7.13,41.106
		c-0.731,16.619-5.482,30.327-11.746,42.783c-3.229,6.428-13.712,16.24-10.066,27.684c1.031,3.235,4.076,6.175,6.711,6.711
		C-275.358,391.498-270.525,389.225-272.139,382.561z M-397.134,239.112c-8.768,7.172-18.844,13.034-23.49,24.328
		c2.63,2.963,7.805,3.382,10.487,6.291c5.103,0.896,8.953,3.632,12.583,5.872c3.835,2.37,7.946,3.918,11.744,6.712
		c9.438,6.942,19.658,19.766,23.069,31.039c1.359,4.495,0.821,12.643,6.711,10.906c1.626-6.511,2.078-22.888,0-31.459
		c-0.642-2.646-2.401-8.436-4.195-8.809c-4.233-0.88-3.943,5.495-5.451,8.39c-4.827-6.008-4.923-15.545-10.906-20.972
		c-2.29-2.079-5.182-3.003-8.809-4.615c-1.949-0.203-4.014,1.261-5.033-0.419c3.356-8.669,13.438-10.612,23.488-12.583
		c4.962-6.784,8.385-15.105,9.649-25.588C-373.102,227.636-384.926,234.679-397.134,239.112z M-342.607,308.74
		c8.319-18.076,25.663-29.966,42.365-39.847c3.065-1.815,11.933-5.825,12.165-8.39c0.233-2.606-6.366-8.316-8.391-10.065
		c-13.179-11.389-33.759-22.399-55.786-22.232c0.668,9.547,7.547,16.494,10.906,24.748c11.029,2.112,20.774,5.51,26.004,13.423
		c-3.222,0.267-5.785-0.379-7.966,0c-13.671,2.362-10.787,20.942-19.297,26.844c0.201-4.114,0.017-7.847-3.775-7.969
		c-0.765,2.145-3.133,5.316-3.775,8.81c-0.879,4.806,0.433,13.603,0.42,20.132c-0.007,4.339-1.575,8.172,1.679,9.645
		C-345.516,318.86-344.843,313.602-342.607,308.74z M-355.189,238.273c-2.215,6.784-3.306,18.485-2.097,27.265
		c0.375,2.729,2.918,5.377,0.837,7.551c-2.17-8.534-13.832-16.862-23.487-10.068c10.146,3.416,18.387,8.736,22.65,18.036
		c2.345,0.222,3.686,0.234,6.709,0.42c4.642-9.341,13.837-14.129,23.071-18.874c-10.241-4.977-20.692,2.612-24.328,9.646
		c1.32-11.577,2.567-25.614-2.099-33.975C-354.351,238.273-354.771,238.273-355.189,238.273z M-292.272,366.204
		c9.356-15.224,20.522-33.184,20.973-57.464c0.239-12.895-3.635-23.306-7.131-33.974c-1.98-0.397-2.12-2.636-3.775-3.355
		c-4.557,2.292-6.008,7.695-8.81,11.743c-2.339-2.224-2.12-5.358-5.452-5.873c-8.151-1.259-9.042,11.629-1.679,11.745
		c3.43,0.054,2.529-1.974,6.711-2.517c1.137,5.041,5.749,8.764,7.551,11.744c-11.196,2.499-16.712-4.256-24.747-5.452
		c-18.034-2.685-34.033,14.401-32.715,31.037c4.875,1.222,4.895-3.576,6.291-5.87c2.464-4.055,7.342-6.938,13.003-7.551
		c3.382-6.043,12.438-10.3,20.552-6.711c3.083,3.768,6.486,7.219,6.711,13.842c12.511,7.134,10.688,26.542-2.096,28.943
		c-1.597,0.3-3.383-0.856-5.035,0c-2.058,1.07-1.847,3.643-3.772,6.291c-2.935,4.033-10.568,8.059-16.78,8.807
		c-3.642,0.439-8.548,1.331-11.323-0.837c0.014-2.642,3.478-1.837,4.611-3.355c1.509-2.966,4.062-4.887,3.355-10.066
		c-2.676-5.189-9.301-9.048-15.518-6.294c-6.649,2.946-8.4,15.02-6.711,23.912c13.644,4.321-4.215,14.372,0.836,24.743
		C-321.593,390.845-305.963,378.384-292.272,366.204z M-426.497,272.667c-13.67,15.572-10.489,59.047-1.677,76.341
		c4.571,8.97,10.798,15.671,18.875,22.65c12.797,11.057,32.171,19.655,53.271,18.453c-0.207-4.505,0.334-9.083-2.517-13.001
		c-2.086-2.868-5.332-3.061-5.034-6.291c0.32-3.472,4.97-3.755,6.711-6.711c1.504-11.158-2.286-22.563-11.325-23.491
		c-10.828-1.106-16.311,10.274-8.809,18.036c1.603,1.195,4.692,0.902,5.453,2.936c-5.742,1.27-13.443,2.594-16.778-1.678
		c-6.651,1.117-11.214-6.9-15.1-11.324c-15.826,1.416-22.558-19.321-10.486-27.684c-1.394-16.109,20.285-22.26,27.265-10.066
		c6.145,0.798,8.952-0.074,12.583,3.355c3.131,2.957,3.305,11.988,9.228,9.226c-0.138-11.544-7.353-22.935-16.359-27.262
		c-3.364-1.617-9.703-3.497-14.68-2.937c-4.027,0.454-8.476,3.342-13.004,4.613c-5.667,1.592-11.1,2.076-17.196,1.261
		c0.948-2.051,3.104-1.708,4.613-2.938c2.965-2.414,3.782-6.284,5.033-10.486c2.717,2.988,4.48,5.37,8.391,4.615
		c6.577-1.273,5.291-11.895-0.84-12.585c-4.526-0.509-4.663,2.355-7.969,3.775C-419.271,277.746-420.556,272.878-426.497,272.667z
		 M-300.242,317.13c0.792-12.255-18.703-11.56-16.778,2.098c-12.735-8.769-20.149,15.355-4.195,14.263
		c-11.814,12.094,15.378,23.743,13.841,3.771c3.216,2.116,5.26,3.387,8.391,2.939c7.724-1.106,9.24-14.507,1.676-15.939
		c-2.799-0.529-3.939,1.685-5.871,0C-302.84,320.262-300.468,320.601-300.242,317.13z M-396.716,309.16
		c-7.738-0.996-13.378,4.128-11.744,10.903c0.62,2.572,3.883,2.886,4.195,5.876c-14.199-2.782-13.5,18.374-1.68,16.356
		c2.98-0.508,3.25-3.395,6.713-4.194c1.703,1.32-0.377,3.03,0,5.454c3.338,8.435,17.366,5.568,16.357-3.775
		c-0.254-2.369-2.453-2.598-2.516-5.874c2.187-0.468,4.569-0.744,6.711-1.257c5.503-5.208,3.081-15.565-4.195-16.36
		c-4.414-0.482-5.635,2.509-8.808,4.615C-392.217,316.93-392.207,310.377-396.716,309.16z M-369.451,332.231
		c0.546,1.969,1.579,3.453,4.613,2.934C-360.714,330.834-367.616,326.983-369.451,332.231z M-341.348,335.165
		c2.062-0.733,4.345-1.245,5.032-3.355C-337.401,326.805-344.426,330.203-341.348,335.165z M-352.254,344.811
		c2.636-3.238,2.516-11.427,0.42-15.097C-357.751,330.01-356.355,343.64-352.254,344.811z M-347.639,338.101
		c1.642-0.311,2.277-1.636,3.771-2.097c0.055-2.43,0.137-4.888-0.836-6.29C-350.264,327.664-348.755,336.155-347.639,338.101z
		 M-357.707,338.94c0.68-1.932,0.68-6.454,0-8.391C-364.062,327.928-362.528,339.647-357.707,338.94z"/>
	<path style="display:none;fill-rule:evenodd;clip-rule:evenodd;" d="M-308.213,330.131c-2.324,3.287-7.994,2.789-8.807-0.836
		C-318.491,322.734-306.363,319.887-308.213,330.131z"/>
	<path style="display:none;fill-rule:evenodd;clip-rule:evenodd;" d="M-390.423,327.194c1.751,9.118-9.472,8.162-9.228,2.101
		C-399.479,325.017-393.357,323.477-390.423,327.194z"/>
</g>
<path style="display:none;fill-rule:evenodd;clip-rule:evenodd;" d="M-123.922,223.141c-0.743,3.59-0.481,19.706,5.035,20.136
	c2.863,0.222,7.759-7.624,10.485-9.229c6.548-3.853,21.305-6.964,24.749,2.516c1.416,3.904-0.942,9.472-4.615,10.068
	c-8.361,1.353-9.602-5.038-5.871-10.486c-5.228-2.811-12.31,1.746-16.361,5.033c-7.005,5.681-13.537,17.428-14.261,30.619
	c-0.645,11.85-0.836,26.149,6.294,31.877c1.501,1.21,3.761,0.902,4.191,2.936c-14.591,3.398-12.891,24.823-11.742,41.526
	c3.242-1.125,4.714-7.565,7.971-10.067c3.267-7.495,7.666-13.861,13.423-18.872c2.002-5.27,6.275-8.263,8.386-13.423
	c-0.26-4.178,0.86-6.97,2.1-9.649c-4.094-3.626-7.808,2.014-10.067,4.194c-2.143-10.879,10.613-16.59,8.808-29.78
	c-0.867-6.338-5.328-9.683-7.971-15.1c10.814-0.327,18.439,2.532,25.588,5.871c9.96-7.492,21.589-15.164,31.038-23.908
	c2.028-1.875,3.94-6.013,7.551-5.032c-2.547,7.951-6.25,16.205-8.811,24.747c-1.341,4.491-3.618,9.669-5.031,14.261
	c-0.525,1.706-1.522,5.591-1.26,7.13c0.267,1.548,3.763,4.776,5.454,6.713c4.065,4.649,7.981,8.444,7.132,15.52
	c-3.714-1.104-5.179-3.318-8.811-3.775c-16.036-2.025-21.238,15.738-34.814,18.456c1.298-2.541,5.698-7.336,1.681-10.068
	c-2.932,1.123-4.782,3.328-8.391,3.775c-8.957,10.194-17.921,20.388-24.327,33.136c5.161-0.586,10.493-3.645,18.455-1.679
	c5.049,1.249,9.497,7.199,17.197,5.035c0.301-4.915-3.699-5.526-4.615-9.228c13.255-2.082,20.03,16,33.976,14.678
	c4.658-0.439,5.788-4.942,10.486-4.61c-0.755,4.294-2.469,7.094-5.032,10.906c-1.789,2.655-6.792,6.673-7.131,9.646
	c-0.519,4.576,4.209,9.773,6.291,13.842c2.469,4.819,3.837,9.302,6.292,13.421c-3.667-0.011-7.6-3.272-10.487-5.451
	c-3.812-0.832-7.175-1.557-10.486-2.939c-3.085-1.282-6.358-4.048-9.226-3.77c-5.869,0.562-10.524,13.551-20.553,11.741
	c2.632-3.662,8.056-8.018,7.551-13.001c-0.089-0.851-2.762-5.974-3.776-7.551c-4.051-6.291-12.974-11.203-12.584-18.458
	c2.891,0.99,5.828,5.102,9.649,2.521c-0.201-3.591-1.843-4.946-1.68-7.97c-4.708-4.411-12.124-5.954-17.197-5.036
	c-17.55,3.179-23.877,38.932-3.354,40.27c0.724,0.952,1.01,2.341,0.839,4.194c-7.523,0.588-12.07,4.148-12.585,11.743
	c-2.574,1.055-4.178,0.893-7.13,0.419c-2.108-6.42-5.512-11.545-13.842-11.741c-0.277-4.909,4.911-4.807,7.13-6.294
	c15.435-10.352-0.375-49.069-23.488-37.331c-3.148,2.444-6.411,4.776-5.453,11.326c3.702,2.465,6.897-1.389,9.227-2.936
	c1.185,10.283-7.204,14.597-12.583,19.713c-4.189,6.366-1.715,13.32,0.839,20.133c-8.612-1.873-12.796-8.178-18.876-12.581
	c-10.534,3.027-18.354,8.77-27.263,13.421c3.335-9.728,9.863-17.285,12.584-28.942c-4.197-5.87-10.072-10.06-10.906-19.293
	c1.774,1.16,3.935,1.936,5.453,3.355c17.647,3.922,22.115-10.762,33.556-13.001c-1.135,3.221-4.689,6.982-2.097,11.322
	c3.151,0.218,3.192-2.678,6.71-2.097c5.38-5.997,20.965-8.24,28.523-2.517c0.596-6.505-5.632-10.121-8.809-14.68
	c-4.451-6.394-7.825-14.113-13.842-19.296c-4.515-0.241-6.069-3.439-7.971-6.293c-2.167,0.941-3.735,3.081-3.775,5.453
	c-0.042,2.62,2.47,3.89,1.678,5.874c-13.053-3.169-15.326-21.753-33.137-18.037c-3.341,0.698-4.374,3.674-7.968,3.355
	c1.34-11.105,9.081-15.807,15.519-21.81c-4.613-17.193-10.824-33.292-16.359-48.658c4.8,0.659,7.997,5.301,11.746,8.391
	c3.772,3.109,7.911,6.145,10.486,10.064c3.552,1.201,5.58,3.787,8.389,6.292c2.086,1.862,5.52,6.279,7.968,6.712
	c3.526,0.624,8.574-3.042,12.585-4.193c4.636-1.333,8.788-2.519,14.261-0.84c-1.252,2.384-3.189,4.082-5.034,5.872
	c-5.059,9.331-3.634,18.042,0.42,26.425c1.668,3.45,5.585,5.461,4.193,10.488c-2.003-2.44-6.599-5.208-10.065-2.519
	c1.73,3.531,0.651,6.746,1.677,10.905c0.558,2.264,2.668,3.287,4.194,5.453c1.743,2.471,3.505,5.553,5.453,8.39
	c6.136,8.95,10.917,19.764,18.456,27.264c1.521-4.678-1.407-9.381,0.419-13.004c-3.152-11.011,1.265-26.034-10.905-28.939
	c0.286-1.952,2.294-2.181,4.194-2.519c4.34-4.49,6.602-11.934,6.711-19.295c0.148-10.133,0.095-22.649-2.518-29.359
	c-3.247-8.346-10.509-18.206-19.713-20.553c-3.337-0.852-7.112-0.319-9.646,0.838c2.072,3.069,4.854,6.493,1.678,10.485
	c-8.594,4.366-15.329-7.268-7.97-13.001c0.77-0.604,1.031,0.456,2.096,0c1.106-0.477,2.086-2.356,2.518-2.518
	c12.878-4.796,21.672,6.56,28.522,12.165c4.526-3.443,4.34-11.601,5.452-18.456C-128.581,223.215-126.758,222.621-123.922,223.141z
	 M-199.841,260.053c8.691,9.485,14.673,21.68,23.908,30.619c-6.572-3.226-15.952-6.561-23.908-4.613
	c-3.097,0.757-9.025,3.702-8.389,7.131c2.806-1.723,9.503-1.634,13.842-1.679c9.141-0.093,15.571,5.203,22.23,7.971
	c1.87-1.486,4.96-1.752,5.872-4.194c-4.419-11.548,0.929-26.895,6.711-35.654c-11.493,3.572-15.031,16.436-12.583,28.522
	c-11.688-15.854-20.728-34.359-36.072-46.557C-207.102,249.2-200.655,253.511-199.841,260.053z M-77.362,278.509
	c-0.986,1.503-1.867,4.943-4.615,5.872c1.946-11.949-3.521-23.544-11.741-23.907c4.435,8.076,9.322,23.309,4.191,34.395
	c1.272,2.083,3.167,3.544,5.454,4.614c7.865-5.598,18.348-9.216,30.619-7.131c1.79,1.158,3.434,2.869,5.872,1.259
	c0.572-2.217-3.234-3.402-4.192-5.454c-4.087-1.546-9.098-2.751-14.262-2.097c-4.499,0.569-7.63,3.406-10.485,3.355
	c8.895-14.452,19.682-27.014,27.682-42.365c0.021-0.72-0.324-1.074-0.839-1.258C-60.144,255.463-68.732,267.003-77.362,278.509z
	 M-75.266,352.752c-1.926-0.674-2.451-2.024-4.196-1.681c-0.884,0.179-5.788,5.544-5.871,5.876
	c-0.887,3.536,2.789,8.141,3.355,13.001c0.66,5.643-0.389,9.66,0.421,13.843c6.946-4.878,4.498-17.272,1.68-23.488
	c9.536,8.496,17.76,18.313,28.939,25.167c-4.523-12.533-16.282-17.835-23.487-27.683c1.918-0.24,1.49,1.863,2.935,2.097
	c6.729-0.618,18.595,3.44,20.973-5.037C-58.317,356.91-68.962,354.957-75.266,352.752z M-178.449,351.913
	c-5.751,5.389-16.917,3.276-25.587,2.934c3.038,6.114,12.577,5.06,18.456,6.296c-6.66,7.042-16.051,11.35-19.294,21.81
	c10.812-4.146,16.744-13.178,24.747-20.135c-2.866,6.343-2.985,18.284,2.937,20.554c-1.059-7.749,0.907-18.184,4.193-25.169
	C-174.512,355.806-176.4,353.78-178.449,351.913z"/>
<path style="fill-rule:evenodd;clip-rule:evenodd;" d="M176.478,10.613c-1.997,6.632-6.607,13.048-10.783,19.486
	c-1.336,2.061-3.608,4.846-3.733,6.353c-0.344,4.114,5.619,12.004,7.465,16.521c2.27,5.556,4.791,13.257,5.807,18.216
	c6.308,30.772-5.194,57.275-19.907,76.673c3.596,9.456,8.641,17.44,12.029,27.11c-9.988-3.076-16.027-10.181-24.887-14.403
	c-10.976,4.836-23.303,12.686-37.327,15.25c-26.326,4.809-49.882-5.922-65.12-16.944c-3.863-3.541-7.667-7.139-12.442-9.745
	c1.1,12.231-8.771,25.786-20.738,18.639c-6.485-3.874-6.212-20.339,5.392-15.674c3.104,4.392-0.629,8.901-6.223,6.78
	c2.319,10.466,14.013,6.009,16.591-0.848c1.9-5.05,0.92-12.686-0.829-16.943c-2.634-6.416-7.698-13.462-11.614-20.76
	c-1.824-3.4-3.223-7.319-4.977-11.01c-3.43-7.229-7.365-15.631-3.733-24.995c4.091,12.47,12.201,34.206,26.545,36.006
	c5.407,0.679,9.357-1.655,11.199-5.506c9.444,8.884-1.049,19.491-13.273,13.555c-3.206-1.554-4.585-3.764-7.049-5.081
	c2.613,10.255,15.973,23.976,30.278,27.533c12.276,3.055,31.533-1.695,28.202-19.911c-0.852-4.661-4.426-6.894-7.88-9.742
	c-2.498,0.823-3.959-0.758-6.635,1.272c0.408,3.138,3.806,3.279,3.73,6.778c-0.071,3.374-4.49,6.112-8.294,5.082
	c-6.421-1.737-5.015-13.172,0.414-15.671c13.123-6.623,25.329,5.257,24.056,18.64c-0.773,8.122-9.536,16.664-17.005,18.636
	c-7.351,1.945-14.954-0.424-21.982-2.54c-0.574,2.809,2.931,4.719,4.978,5.929c6.986,4.134,16.558,7.361,24.883,10.17
	c11.719,2.01,28.001,2.13,37.747-0.425c7.444-4.116,16.609-6.474,22.394-12.286c-2.143-4.586-6.643-6.771-10.368-9.742
	c-6.997,3.592-13.71,9.704-23.226,9.318c2.99-7.457,6.099-14.69,3.318-22.873c-2.508-7.377-11.345-13.3-10.369-23.3
	c3.548,0.796,4.186,6.684,9.123,4.66c2.156-1.082,0.242-5.219,0.414-8.049c-10.999-16.381-32.535,0.648-45.207,1.696
	c-21.183,1.748-35.228-11.603-42.305-26.265c-7.696-15.942-0.69-42.228,8.293-54.645c-1.916-10.748-8.224-17.013-10.781-27.109
	c3.787,0.37,7.393,4.104,12.027,6.777c3.518,2.029,8.834,7.074,12.442,7.202c3.553,0.124,6.175-3.81,9.955-5.508
	c1.224-0.549,3.15-0.734,4.562-1.27C62.58,3.487,77.767-0.332,91.453,0.023c14.882,0.387,27.456,4.771,38.985,10.166
	c2.235,1.044,4.821,2.314,6.636,3.389c6.191,3.666,8.902,10.633,17.006,7.201C160.901,17.892,169.866,12.398,176.478,10.613z
	 M43.755,19.509c2.096,2.473,8.73,9.839,12.441,9.743c2.573-0.066,6.172-4.094,9.126-5.506c4.432-2.117,8.932-3.545,13.271-2.542
	c-1.299,4.861-4.444,7.613-4.561,12.709c-0.227,9.806,9.008,16.739,9.125,25.415c-2.629-1.569-6.864-5.028-9.542-1.694
	c0.767,2.468,2.622,3.819,2.076,7.625c2.662,4.261,6.384,9.874,7.05,16.521c0.233,2.327-1.226,6.817,1.659,8.048
	c9.055-7.284,20.943-13.896,21.983-27.958c-4.228-2.964-7.227,3.154-9.955,2.965c-0.809-11.045,8.512-15.273,12.03-23.297
	c1.991-9.188,0.124-15.001-4.148-21.18c11.663-0.316,18.097,8.325,26.127,13.13c4.695-1.701,8.735-4.071,11.615-7.625
	C122.675,2.215,68.622-0.514,43.755,19.509z M26.334,17.814c0.046,0.115-0.057,0.314,0,0.424
	c7.464,14.279,20.764,25.334,29.033,37.277c-7.298-2.746-18.304-1.27-21.153,4.66c7.812-0.61,14.283-0.848,21.568,0.846
	c1.899,0.443,3.295,1.936,4.977,1.696c1.858-0.267,6.195-4.397,6.636-6.355c0.454-2.007-0.714-4.841-0.83-7.202
	c-0.367-7.522,1.853-14.832,3.321-20.756c-7.625,3.923-9.257,14.302-9.126,24.993C50.704,40.086,40.646,26.777,27.164,16.966
	c-0.091-0.329-0.349-0.491-0.83-0.422C26.172,17.148,25.837,17.258,26.334,17.814z M163.208,21.628
	c-0.56,0.088-0.853,0.607-1.247,0.846c-10.633,6.481-22.585,17.636-31.523,26.263c-3.352,3.237-5.713,7.036-9.124,9.32
	c2.575-8.853,3.737-20.988-3.733-26.264c-1.113,9.637,0.828,21.995-3.732,29.651c1.312,1.432,2.555,5.115,5.39,5.508
	c1.749,0.241,4.036-1.477,5.809-1.694c11.518-1.406,19.034,2.589,26.544,5.083c-3.39-8.823-13.991-10.28-24.888-11.437
	c13.856-10.985,27.779-21.897,37.332-37.277C163.759,21.628,163.484,21.628,163.208,21.628z M35.044,45.772
	c-0.099-3.897-5.609-9.016-8.297-10.591c-3.982,2.631-6.265,8.524-7.878,13.979C7.039,89.17,51.388,121.924,77.766,91.944
	c2.765-12.516-1.404-23.897-12.86-24.567c-3.283,3.63,0.899,6.881,2.075,9.742c-15.125,3.284-23.426-20.966-40.647-10.59
	C21.915,57.949,35.215,52.459,35.044,45.772z M162.375,126.682c2.914-4.971,5.246-12.438,6.637-18.215
	c5.785-24.059,0.101-48.981-12.442-63.541c-4.243,2.02-6.248,6.328-8.296,10.59c4.326,7.168,10.504,14.679,9.952,25.416
	c-4.403-2.286-6.868-5.626-11.611-6.777c-12.549-3.043-19.917,10.525-31.107,9.319c-0.33-2.851,6.129-6.123,2.904-10.59
	c-3.93,1.281-5.182,2.675-10.785,2.118c-6.293,6.703-14.118,11.841-19.494,19.486c6.026,2.882,14.188,3.582,18.25,8.47
	c4.069-0.717,4.825,3.076,8.296,1.696c1.633-3.871-3.271-6.35-2.903-8.897c12.225,0.959,16.006,14.371,28.201,15.674
	c6.475,0.693,10.261-2.634,15.348-5.085c0.769,6.984-3.042,13.134-5.806,17.791c-1.303,2.196-3.966,4.396-4.148,5.933
	c-0.446,3.716,3.898,7.66,6.222,10.59C156.042,137.865,159.241,132.035,162.375,126.682z M114.68,111.855
	c-1.077,1.724-2.943,2.641-3.734,4.661c4.533,9.966,0.989,23.776-1.66,31.77c8.446-2.361,10.943-12.979,9.542-22.876
	c5.759,5.837,10.805,12.403,15.759,19.063c3.23,1.783,6.215,3.816,7.466,7.623c6.1,1.255,6.616,8.211,12.858,9.321
	c-6.923-12.131-15.237-22.846-25.302-31.771c-2.072-3.695-6.724-6.936-7.878-10.166c7.756,4.102,19.661,4.702,24.055-2.544
	C136.625,118.163,124.299,116.285,114.68,111.855z"/>
</svg>
